<?xml version="1.0" encoding="UTF-8"?>
<svg version="1.1" xmlns="http://www.w3.org/2000/svg" width="540" height="500">
<path d="M0 0 C33 0 66 0 100 0 C100 1.65 100 3.3 100 5 C104.95 5 109.9 5 115 5 C115 6.65 115 8.3 115 10 C118.3 10 121.6 10 125 10 C125 11.65 125 13.3 125 15 C126.65 15 128.3 15 130 15 C130 16.65 130 18.3 130 20 C133.3 20 136.6 20 140 20 C140 21.65 140 23.3 140 25 C141.65 25 143.3 25 145 25 C145 26.65 145 28.3 145 30 C146.65 30 148.3 30 150 30 C150 31.65 150 33.3 150 35 C151.65 35 153.3 35 155 35 C155 38.3 155 41.6 155 45 C156.65 45 158.3 45 160 45 C160 46.65 160 48.3 160 50 C161.65 50 163.3 50 165 50 C165 53.3 165 56.6 165 60 C166.65 60 168.3 60 170 60 C170 88.05 170 116.1 170 145 C168.35 145 166.7 145 165 145 C165 148.3 165 151.6 165 155 C163.35 155 161.7 155 160 155 C160 156.65 160 158.3 160 160 C158.35 160 156.7 160 155 160 C155 163.3 155 166.6 155 170 C153.35 170 151.7 170 150 170 C150 171.65 150 173.3 150 175 C148.35 175 146.7 175 145 175 C145 176.65 145 178.3 145 180 C143.35 180 141.7 180 140 180 C140 181.65 140 183.3 140 185 C136.7 185 133.4 185 130 185 C130 186.65 130 188.3 130 190 C128.35 190 126.7 190 125 190 C125 191.65 125 193.3 125 195 C121.7 195 118.4 195 115 195 C115 196.65 115 198.3 115 200 C110.05 200 105.1 200 100 200 C100 201.65 100 203.3 100 205 C98.35 205 96.7 205 95 205 C95 214.9 95 224.8 95 235 C93.35 235 91.7 235 90 235 C90 236.65 90 238.3 90 240 C78.45 240 66.9 240 55 240 C55 238.35 55 236.7 55 235 C53.35 235 51.7 235 50 235 C50 233.35 50 231.7 50 230 C48.35 230 46.7 230 45 230 C45 228.35 45 226.7 45 225 C41.7 225 38.4 225 35 225 C35 221.7 35 218.4 35 215 C33.35 215 31.7 215 30 215 C30 213.35 30 211.7 30 210 C28.35 210 26.7 210 25 210 C25 208.35 25 206.7 25 205 C23.35 205 21.7 205 20 205 C20 206.65 20 208.3 20 210 C16.7 210 13.4 210 10 210 C10 208.35 10 206.7 10 205 C6.7 205 3.4 205 0 205 C0 203.35 0 201.7 0 200 C-4.95 200 -9.9 200 -15 200 C-15 198.35 -15 196.7 -15 195 C-18.3 195 -21.6 195 -25 195 C-25 193.35 -25 191.7 -25 190 C-26.65 190 -28.3 190 -30 190 C-30 188.35 -30 186.7 -30 185 C-33.3 185 -36.6 185 -40 185 C-40 183.35 -40 181.7 -40 180 C-41.65 180 -43.3 180 -45 180 C-45 178.35 -45 176.7 -45 175 C-46.65 175 -48.3 175 -50 175 C-50 173.35 -50 171.7 -50 170 C-51.65 170 -53.3 170 -55 170 C-55 166.7 -55 163.4 -55 160 C-56.65 160 -58.3 160 -60 160 C-60 158.35 -60 156.7 -60 155 C-61.65 155 -63.3 155 -65 155 C-65 151.7 -65 148.4 -65 145 C-66.65 145 -68.3 145 -70 145 C-70 116.95 -70 88.9 -70 60 C-68.35 60 -66.7 60 -65 60 C-65 56.7 -65 53.4 -65 50 C-63.35 50 -61.7 50 -60 50 C-60 48.35 -60 46.7 -60 45 C-58.35 45 -56.7 45 -55 45 C-55 41.7 -55 38.4 -55 35 C-53.35 35 -51.7 35 -50 35 C-50 33.35 -50 31.7 -50 30 C-48.35 30 -46.7 30 -45 30 C-45 28.35 -45 26.7 -45 25 C-43.35 25 -41.7 25 -40 25 C-40 23.35 -40 21.7 -40 20 C-36.7 20 -33.4 20 -30 20 C-30 18.35 -30 16.7 -30 15 C-28.35 15 -26.7 15 -25 15 C-25 13.35 -25 11.7 -25 10 C-21.7 10 -18.4 10 -15 10 C-15 8.35 -15 6.7 -15 5 C-10.05 5 -5.1 5 0 5 C0 3.35 0 1.7 0 0 Z " fill="#DDEDFC" transform="translate(220,130)"/>
<path d="M0 0 C6.6 0 13.2 0 20 0 C20 1.65 20 3.3 20 5 C24.95 5 29.9 5 35 5 C35 6.65 35 8.3 35 10 C38.3 10 41.6 10 45 10 C45 11.65 45 13.3 45 15 C46.65 15 48.3 15 50 15 C50 16.65 50 18.3 50 20 C53.3 20 56.6 20 60 20 C60 21.65 60 23.3 60 25 C61.65 25 63.3 25 65 25 C65 26.65 65 28.3 65 30 C66.65 30 68.3 30 70 30 C70 31.65 70 33.3 70 35 C71.65 35 73.3 35 75 35 C75 38.3 75 41.6 75 45 C76.65 45 78.3 45 80 45 C80 46.65 80 48.3 80 50 C81.65 50 83.3 50 85 50 C85 53.3 85 56.6 85 60 C86.65 60 88.3 60 90 60 C90 88.05 90 116.1 90 145 C88.35 145 86.7 145 85 145 C85 148.3 85 151.6 85 155 C83.35 155 81.7 155 80 155 C80 156.65 80 158.3 80 160 C78.35 160 76.7 160 75 160 C75 163.3 75 166.6 75 170 C73.35 170 71.7 170 70 170 C70 171.65 70 173.3 70 175 C68.35 175 66.7 175 65 175 C65 176.65 65 178.3 65 180 C63.35 180 61.7 180 60 180 C60 181.65 60 183.3 60 185 C56.7 185 53.4 185 50 185 C50 186.65 50 188.3 50 190 C48.35 190 46.7 190 45 190 C45 191.65 45 193.3 45 195 C41.7 195 38.4 195 35 195 C35 196.65 35 198.3 35 200 C30.05 200 25.1 200 20 200 C20 201.65 20 203.3 20 205 C18.35 205 16.7 205 15 205 C15 214.9 15 224.8 15 235 C13.35 235 11.7 235 10 235 C10 236.65 10 238.3 10 240 C-1.55 240 -13.1 240 -25 240 C-25 238.35 -25 236.7 -25 235 C-26.65 235 -28.3 235 -30 235 C-30 233.35 -30 231.7 -30 230 C-31.65 230 -33.3 230 -35 230 C-35 228.35 -35 226.7 -35 225 C-38.3 225 -41.6 225 -45 225 C-45 221.7 -45 218.4 -45 215 C-46.65 215 -48.3 215 -50 215 C-50 213.35 -50 211.7 -50 210 C-51.65 210 -53.3 210 -55 210 C-55 208.35 -55 206.7 -55 205 C-56.65 205 -58.3 205 -60 205 C-60 206.65 -60 208.3 -60 210 C-63.3 210 -66.6 210 -70 210 C-70 208.35 -70 206.7 -70 205 C-73.3 205 -76.6 205 -80 205 C-80 203.35 -80 201.7 -80 200 C-84.95 200 -89.9 200 -95 200 C-95 198.35 -95 196.7 -95 195 C-98.3 195 -101.6 195 -105 195 C-105 193.35 -105 191.7 -105 190 C-106.65 190 -108.3 190 -110 190 C-110 188.35 -110 186.7 -110 185 C-113.3 185 -116.6 185 -120 185 C-120 183.35 -120 181.7 -120 180 C-121.65 180 -123.3 180 -125 180 C-125 178.35 -125 176.7 -125 175 C-126.65 175 -128.3 175 -130 175 C-130 173.35 -130 171.7 -130 170 C-131.65 170 -133.3 170 -135 170 C-135 166.7 -135 163.4 -135 160 C-136.65 160 -138.3 160 -140 160 C-140 158.35 -140 156.7 -140 155 C-141.65 155 -143.3 155 -145 155 C-145 151.7 -145 148.4 -145 145 C-146.65 145 -148.3 145 -150 145 C-150 136.75 -150 128.5 -150 120 C-148.35 120 -146.7 120 -145 120 C-145 124.95 -145 129.9 -145 135 C-143.35 135 -141.7 135 -140 135 C-140 136.65 -140 138.3 -140 140 C-138.35 140 -136.7 140 -135 140 C-135 143.3 -135 146.6 -135 150 C-133.35 150 -131.7 150 -130 150 C-130 151.65 -130 153.3 -130 155 C-128.35 155 -126.7 155 -125 155 C-125 156.65 -125 158.3 -125 160 C-121.7 160 -118.4 160 -115 160 C-115 161.65 -115 163.3 -115 165 C-113.35 165 -111.7 165 -110 165 C-110 166.65 -110 168.3 -110 170 C-106.7 170 -103.4 170 -100 170 C-100 171.65 -100 173.3 -100 175 C-96.7 175 -93.4 175 -90 175 C-90 176.65 -90 178.3 -90 180 C-85.05 180 -80.1 180 -75 180 C-75 181.65 -75 183.3 -75 185 C-66.75 185 -58.5 185 -50 185 C-50 186.65 -50 188.3 -50 190 C-48.35 190 -46.7 190 -45 190 C-45 191.65 -45 193.3 -45 195 C-43.35 195 -41.7 195 -40 195 C-40 198.3 -40 201.6 -40 205 C-38.35 205 -36.7 205 -35 205 C-35 206.65 -35 208.3 -35 210 C-33.35 210 -31.7 210 -30 210 C-30 211.65 -30 213.3 -30 215 C-28.35 215 -26.7 215 -25 215 C-25 216.65 -25 218.3 -25 220 C-23.35 220 -21.7 220 -20 220 C-20 221.65 -20 223.3 -20 225 C-16.7 225 -13.4 225 -10 225 C-10 211.8 -10 198.6 -10 185 C-8.35 185 -6.7 185 -5 185 C-5 183.35 -5 181.7 -5 180 C-0.05 180 4.9 180 10 180 C10 178.35 10 176.7 10 175 C13.3 175 16.6 175 20 175 C20 173.35 20 171.7 20 170 C23.3 170 26.6 170 30 170 C30 168.35 30 166.7 30 165 C31.65 165 33.3 165 35 165 C35 163.35 35 161.7 35 160 C36.65 160 38.3 160 40 160 C40 158.35 40 156.7 40 155 C41.65 155 43.3 155 45 155 C45 153.35 45 151.7 45 150 C46.65 150 48.3 150 50 150 C50 148.35 50 146.7 50 145 C51.65 145 53.3 145 55 145 C55 143.35 55 141.7 55 140 C56.65 140 58.3 140 60 140 C60 136.7 60 133.4 60 130 C61.65 130 63.3 130 65 130 C65 126.7 65 123.4 65 120 C66.65 120 68.3 120 70 120 C70 101.85 70 83.7 70 65 C68.35 65 66.7 65 65 65 C65 61.7 65 58.4 65 55 C63.35 55 61.7 55 60 55 C60 51.7 60 48.4 60 45 C58.35 45 56.7 45 55 45 C55 43.35 55 41.7 55 40 C53.35 40 51.7 40 50 40 C50 36.7 50 33.4 50 30 C48.35 30 46.7 30 45 30 C45 28.35 45 26.7 45 25 C41.7 25 38.4 25 35 25 C35 23.35 35 21.7 35 20 C33.35 20 31.7 20 30 20 C30 18.35 30 16.7 30 15 C26.7 15 23.4 15 20 15 C20 13.35 20 11.7 20 10 C16.7 10 13.4 10 10 10 C10 8.35 10 6.7 10 5 C6.7 5 3.4 5 0 5 C0 3.35 0 1.7 0 0 Z " fill="#152A55" transform="translate(300,130)"/>
<path d="M0 0 C1.65 0 3.3 0 5 0 C5 1.65 5 3.3 5 5 C6.65 5 8.3 5 10 5 C10 8.3 10 11.6 10 15 C8.35 15 6.7 15 5 15 C5 18.3 5 21.6 5 25 C3.35 25 1.7 25 0 25 C0 26.65 0 28.3 0 30 C-1.65 30 -3.3 30 -5 30 C-5 31.65 -5 33.3 -5 35 C-6.65 35 -8.3 35 -10 35 C-10 36.65 -10 38.3 -10 40 C-11.65 40 -13.3 40 -15 40 C-15 41.65 -15 43.3 -15 45 C-16.65 45 -18.3 45 -20 45 C-20 46.65 -20 48.3 -20 50 C-21.65 50 -23.3 50 -25 50 C-25 51.65 -25 53.3 -25 55 C-28.3 55 -31.6 55 -35 55 C-35 56.65 -35 58.3 -35 60 C-38.3 60 -41.6 60 -45 60 C-45 61.65 -45 63.3 -45 65 C-49.95 65 -54.9 65 -60 65 C-60 66.65 -60 68.3 -60 70 C-61.65 70 -63.3 70 -65 70 C-65 83.2 -65 96.4 -65 110 C-68.3 110 -71.6 110 -75 110 C-75 108.35 -75 106.7 -75 105 C-76.65 105 -78.3 105 -80 105 C-80 103.35 -80 101.7 -80 100 C-81.65 100 -83.3 100 -85 100 C-85 98.35 -85 96.7 -85 95 C-86.65 95 -88.3 95 -90 95 C-90 93.35 -90 91.7 -90 90 C-91.65 90 -93.3 90 -95 90 C-95 86.7 -95 83.4 -95 80 C-96.65 80 -98.3 80 -100 80 C-100 78.35 -100 76.7 -100 75 C-101.65 75 -103.3 75 -105 75 C-105 73.35 -105 71.7 -105 70 C-113.25 70 -121.5 70 -130 70 C-130 68.35 -130 66.7 -130 65 C-134.95 65 -139.9 65 -145 65 C-145 63.35 -145 61.7 -145 60 C-148.3 60 -151.6 60 -155 60 C-155 58.35 -155 56.7 -155 55 C-158.3 55 -161.6 55 -165 55 C-165 53.35 -165 51.7 -165 50 C-166.65 50 -168.3 50 -170 50 C-170 48.35 -170 46.7 -170 45 C-173.3 45 -176.6 45 -180 45 C-180 43.35 -180 41.7 -180 40 C-181.65 40 -183.3 40 -185 40 C-185 38.35 -185 36.7 -185 35 C-186.65 35 -188.3 35 -190 35 C-190 31.7 -190 28.4 -190 25 C-191.65 25 -193.3 25 -195 25 C-195 23.35 -195 21.7 -195 20 C-196.65 20 -198.3 20 -200 20 C-200 15.05 -200 10.1 -200 5 C-198.35 5 -196.7 5 -195 5 C-195 8.3 -195 11.6 -195 15 C-191.7 15 -188.4 15 -185 15 C-185 18.3 -185 21.6 -185 25 C-181.7 25 -178.4 25 -175 25 C-175 26.65 -175 28.3 -175 30 C-173.35 30 -171.7 30 -170 30 C-170 31.65 -170 33.3 -170 35 C-168.35 35 -166.7 35 -165 35 C-165 36.65 -165 38.3 -165 40 C-161.7 40 -158.4 40 -155 40 C-155 41.65 -155 43.3 -155 45 C-153.35 45 -151.7 45 -150 45 C-150 46.65 -150 48.3 -150 50 C-146.7 50 -143.4 50 -140 50 C-140 51.65 -140 53.3 -140 55 C-128.45 55 -116.9 55 -105 55 C-105 56.65 -105 58.3 -105 60 C-101.7 60 -98.4 60 -95 60 C-95 61.65 -95 63.3 -95 65 C-91.7 65 -88.4 65 -85 65 C-85 69.95 -85 74.9 -85 80 C-83.35 80 -81.7 80 -80 80 C-80 81.65 -80 83.3 -80 85 C-78.35 85 -76.7 85 -75 85 C-75 76.75 -75 68.5 -75 60 C-73.35 60 -71.7 60 -70 60 C-70 58.35 -70 56.7 -70 55 C-65.05 55 -60.1 55 -55 55 C-55 53.35 -55 51.7 -55 50 C-51.7 50 -48.4 50 -45 50 C-45 46.7 -45 43.4 -45 40 C-41.7 40 -38.4 40 -35 40 C-35 38.35 -35 36.7 -35 35 C-31.7 35 -28.4 35 -25 35 C-25 33.35 -25 31.7 -25 30 C-21.7 30 -18.4 30 -15 30 C-15 28.35 -15 26.7 -15 25 C-13.35 25 -11.7 25 -10 25 C-10 23.35 -10 21.7 -10 20 C-8.35 20 -6.7 20 -5 20 C-5 18.35 -5 16.7 -5 15 C-3.35 15 -1.7 15 0 15 C0 10.05 0 5.1 0 0 Z " fill="#8CB3DB" transform="translate(355,245)"/>
<path d="M0 0 C14.85 0 29.7 0 45 0 C45 26.4 45 52.8 45 80 C48.3 80 51.6 80 55 80 C55 83.3 55 86.6 55 90 C53.35 90 51.7 90 50 90 C50 88.35 50 86.7 50 85 C46.7 85 43.4 85 40 85 C40 86.65 40 88.3 40 90 C26.8 90 13.6 90 0 90 C0 86.7 0 83.4 0 80 C3.3 80 6.6 80 10 80 C10 58.55 10 37.1 10 15 C8.35 15 6.7 15 5 15 C5 13.35 5 11.7 5 10 C3.35 10 1.7 10 0 10 C0 6.7 0 3.4 0 0 Z " fill="#003297" transform="translate(235,195)"/>
<path d="M0 0 C1.65 0 3.3 0 5 0 C5 1.65 5 3.3 5 5 C3.68 5.33 2.36 5.66 1 6 C0.67 7.32 0.34 8.64 0 10 C-1.32 10.33 -2.64 10.66 -4 11 C-4.33 12.32 -4.66 13.64 -5 15 C-6.32 15.33 -7.64 15.66 -9 16 C-9.33 17.32 -9.66 18.64 -10 20 C-11.32 20.33 -12.64 20.66 -14 21 C-14.33 22.32 -14.66 23.64 -15 25 C-16.32 25.33 -17.64 25.66 -19 26 C-19.33 27.32 -19.66 28.64 -20 30 C-21.32 30.33 -22.64 30.66 -24 31 C-24.33 52.12 -24.66 73.24 -25 95 C-21.7 95 -18.4 95 -15 95 C-15 98.3 -15 101.6 -15 105 C-13.35 105 -11.7 105 -10 105 C-10 106.65 -10 108.3 -10 110 C-8.35 110 -6.7 110 -5 110 C-5 113.3 -5 116.6 -5 120 C-3.35 120 -1.7 120 0 120 C0 121.65 0 123.3 0 125 C1.98 125 3.96 125 6 125 C5.67 126.65 5.34 128.3 5 130 C6.65 130 8.3 130 10 130 C10 131.65 10 133.3 10 135 C13.63 135 17.26 135 21 135 C20.67 136.65 20.34 138.3 20 140 C23.3 140 26.6 140 30 140 C30 141.65 30 143.3 30 145 C34.95 145 39.9 145 45 145 C45 146.65 45 148.3 45 150 C53.25 150 61.5 150 70 150 C70 151.65 70 153.3 70 155 C73.3 155 76.6 155 80 155 C80 156.65 80 158.3 80 160 C81.65 160 83.3 160 85 160 C85 158.35 85 156.7 85 155 C86.65 155 88.3 155 90 155 C90 153.35 90 151.7 90 150 C93.3 150 96.6 150 100 150 C100 148.35 100 146.7 100 145 C106.6 145 113.2 145 120 145 C120 146.65 120 148.3 120 150 C116.7 150 113.4 150 110 150 C110 151.65 110 153.3 110 155 C105.05 155 100.1 155 95 155 C95 156.65 95 158.3 95 160 C93.35 160 91.7 160 90 160 C90 168.25 90 176.5 90 185 C88.35 185 86.7 185 85 185 C85 183.35 85 181.7 85 180 C83.35 180 81.7 180 80 180 C80 175.05 80 170.1 80 165 C76.7 165 73.4 165 70 165 C70 163.35 70 161.7 70 160 C66.7 160 63.4 160 60 160 C60 158.35 60 156.7 60 155 C48.45 155 36.9 155 25 155 C25 153.35 25 151.7 25 150 C21.7 150 18.4 150 15 150 C15 148.35 15 146.7 15 145 C13.35 145 11.7 145 10 145 C10 143.35 10 141.7 10 140 C6.7 140 3.4 140 0 140 C0 138.35 0 136.7 0 135 C-1.65 135 -3.3 135 -5 135 C-5 133.35 -5 131.7 -5 130 C-6.65 130 -8.3 130 -10 130 C-10 128.35 -10 126.7 -10 125 C-13.3 125 -16.6 125 -20 125 C-20 121.7 -20 118.4 -20 115 C-23.3 115 -26.6 115 -30 115 C-30 111.7 -30 108.4 -30 105 C-33.3 105 -36.6 105 -40 105 C-40 85.2 -40 65.4 -40 45 C-38.35 45 -36.7 45 -35 45 C-35 41.7 -35 38.4 -35 35 C-33.35 35 -31.7 35 -30 35 C-30 33.35 -30 31.7 -30 30 C-28.35 30 -26.7 30 -25 30 C-25 26.7 -25 23.4 -25 20 C-23.35 20 -21.7 20 -20 20 C-20 18.35 -20 16.7 -20 15 C-18.35 15 -16.7 15 -15 15 C-15 13.35 -15 11.7 -15 10 C-13.35 10 -11.7 10 -10 10 C-10 8.35 -10 6.7 -10 5 C-6.7 5 -3.4 5 0 5 C0 3.35 0 1.7 0 0 Z " fill="#B7C3CF" transform="translate(190,145)"/>
<path d="M0 0 C3.3 0 6.6 0 10 0 C10 1.65 10 3.3 10 5 C11.65 5 13.3 5 15 5 C15 8.3 15 11.6 15 15 C16.65 15 18.3 15 20 15 C20 16.65 20 18.3 20 20 C21.65 20 23.3 20 25 20 C25 23.3 25 26.6 25 30 C26.65 30 28.3 30 30 30 C30 33.3 30 36.6 30 40 C31.65 40 33.3 40 35 40 C35 58.15 35 76.3 35 95 C31.7 95 28.4 95 25 95 C25 93.35 25 91.7 25 90 C23.35 90 21.7 90 20 90 C20 94.95 20 99.9 20 105 C18.35 105 16.7 105 15 105 C15 106.65 15 108.3 15 110 C13.35 110 11.7 110 10 110 C10 111.65 10 113.3 10 115 C8.35 115 6.7 115 5 115 C5 116.65 5 118.3 5 120 C1.7 120 -1.6 120 -5 120 C-5 121.65 -5 123.3 -5 125 C-8.3 125 -11.6 125 -15 125 C-15 126.65 -15 128.3 -15 130 C-18.3 130 -21.6 130 -25 130 C-25 128.35 -25 126.7 -25 125 C-23.35 125 -21.7 125 -20 125 C-20 123.35 -20 121.7 -20 120 C-16.7 120 -13.4 120 -10 120 C-10 118.35 -10 116.7 -10 115 C-8.35 115 -6.7 115 -5 115 C-5 111.7 -5 108.4 -5 105 C-1.7 105 1.6 105 5 105 C5 101.7 5 98.4 5 95 C6.65 95 8.3 95 10 95 C10 90.05 10 85.1 10 80 C11.65 80 13.3 80 15 80 C15 68.45 15 56.9 15 45 C13.35 45 11.7 45 10 45 C10 40.05 10 35.1 10 30 C8.35 30 6.7 30 5 30 C5 25.05 5 20.1 5 15 C3.35 15 1.7 15 0 15 C0 10.05 0 5.1 0 0 Z " fill="#C2D6EA" transform="translate(335,155)"/>
<path d="M0 0 C14.85 0 29.7 0 45 0 C45 24.75 45 49.5 45 75 C43.35 75 41.7 75 40 75 C40 53.55 40 32.1 40 10 C31.75 10 23.5 10 15 10 C15 33.1 15 56.2 15 80 C13.35 80 11.7 80 10 80 C10 58.55 10 37.1 10 15 C8.35 15 6.7 15 5 15 C5 13.35 5 11.7 5 10 C3.35 10 1.7 10 0 10 C0 6.7 0 3.4 0 0 Z " fill="#002776" transform="translate(235,195)"/>
<path d="M0 0 C6.6 0 13.2 0 20 0 C20 1.65 20 3.3 20 5 C24.95 5 29.9 5 35 5 C35 6.65 35 8.3 35 10 C43.25 10 51.5 10 60 10 C60 11.65 60 13.3 60 15 C63.3 15 66.6 15 70 15 C70 16.65 70 18.3 70 20 C71.65 20 73.3 20 75 20 C75 18.35 75 16.7 75 15 C76.65 15 78.3 15 80 15 C80 13.35 80 11.7 80 10 C83.3 10 86.6 10 90 10 C90 8.35 90 6.7 90 5 C96.6 5 103.2 5 110 5 C110 6.65 110 8.3 110 10 C106.7 10 103.4 10 100 10 C100 11.65 100 13.3 100 15 C95.05 15 90.1 15 85 15 C85 16.65 85 18.3 85 20 C83.35 20 81.7 20 80 20 C80 28.25 80 36.5 80 45 C78.35 45 76.7 45 75 45 C75 43.35 75 41.7 75 40 C73.35 40 71.7 40 70 40 C70 35.05 70 30.1 70 25 C66.7 25 63.4 25 60 25 C60 23.35 60 21.7 60 20 C56.7 20 53.4 20 50 20 C50 18.35 50 16.7 50 15 C38.45 15 26.9 15 15 15 C15 13.35 15 11.7 15 10 C11.7 10 8.4 10 5 10 C5 8.35 5 6.7 5 5 C3.35 5 1.7 5 0 5 C0 3.35 0 1.7 0 0 Z " fill="#96B9DC" transform="translate(200,285)"/>
<path d="M0 0 C1.65 0 3.3 0 5 0 C5 3.3 5 6.6 5 10 C8.3 10 11.6 10 15 10 C15 13.3 15 16.6 15 20 C18.3 20 21.6 20 25 20 C25 21.65 25 23.3 25 25 C26.65 25 28.3 25 30 25 C30 26.65 30 28.3 30 30 C31.65 30 33.3 30 35 30 C35 31.65 35 33.3 35 35 C38.3 35 41.6 35 45 35 C45 36.65 45 38.3 45 40 C46.65 40 48.3 40 50 40 C50 41.65 50 43.3 50 45 C53.3 45 56.6 45 60 45 C60 46.65 60 48.3 60 50 C71.55 50 83.1 50 95 50 C95 51.65 95 53.3 95 55 C78.5 55 62 55 45 55 C45 53.35 45 51.7 45 50 C41.7 50 38.4 50 35 50 C35 48.35 35 46.7 35 45 C33.35 45 31.7 45 30 45 C30 43.35 30 41.7 30 40 C26.7 40 23.4 40 20 40 C20 38.35 20 36.7 20 35 C18.35 35 16.7 35 15 35 C15 33.35 15 31.7 15 30 C13.35 30 11.7 30 10 30 C10 26.7 10 23.4 10 20 C8.35 20 6.7 20 5 20 C5 18.35 5 16.7 5 15 C3.35 15 1.7 15 0 15 C0 10.05 0 5.1 0 0 Z " fill="#88A3BE" transform="translate(155,250)"/>
<path d="M0 0 C1.65 0 3.3 0 5 0 C5 3.3 5 6.6 5 10 C9.95 10 14.9 10 20 10 C20 11.65 20 13.3 20 15 C13.4 15 6.8 15 0 15 C0 16.65 0 18.3 0 20 C-3.3 20 -6.6 20 -10 20 C-10 21.65 -10 23.3 -10 25 C-11.65 25 -13.3 25 -15 25 C-15 26.65 -15 28.3 -15 30 C-16.65 30 -18.3 30 -20 30 C-20 28.35 -20 26.7 -20 25 C-23.3 25 -26.6 25 -30 25 C-30 23.35 -30 21.7 -30 20 C-38.25 20 -46.5 20 -55 20 C-55 18.35 -55 16.7 -55 15 C-59.95 15 -64.9 15 -70 15 C-70 13.35 -70 11.7 -70 10 C-51.85 10 -33.7 10 -15 10 C-15 8.35 -15 6.7 -15 5 C-11.7 5 -8.4 5 -5 5 C-5 6.65 -5 8.3 -5 10 C-3.35 10 -1.7 10 0 10 C0 6.7 0 3.4 0 0 Z " fill="#B2D7FC" transform="translate(290,275)"/>
<path d="M0 0 C6.6 0 13.2 0 20 0 C20 1.65 20 3.3 20 5 C21.65 5 23.3 5 25 5 C25 6.65 25 8.3 25 10 C26.65 10 28.3 10 30 10 C30 13.3 30 16.6 30 20 C28.35 20 26.7 20 25 20 C25 23.3 25 26.6 25 30 C16.75 30 8.5 30 0 30 C0 28.35 0 26.7 0 25 C-1.65 25 -3.3 25 -5 25 C-5 18.4 -5 11.8 -5 5 C-3.35 5 -1.7 5 0 5 C0 3.35 0 1.7 0 0 Z " fill="#023396" transform="translate(250,150)"/>
<path d="M0 0 C1.65 0 3.3 0 5 0 C5 1.65 5 3.3 5 5 C3.68 5.33 2.36 5.66 1 6 C0.67 7.32 0.34 8.64 0 10 C-1.32 10.33 -2.64 10.66 -4 11 C-4.33 12.32 -4.66 13.64 -5 15 C-6.32 15.33 -7.64 15.66 -9 16 C-9.33 17.32 -9.66 18.64 -10 20 C-11.32 20.33 -12.64 20.66 -14 21 C-14.33 22.32 -14.66 23.64 -15 25 C-16.32 25.33 -17.64 25.66 -19 26 C-19.33 27.32 -19.66 28.64 -20 30 C-21.32 30.33 -22.64 30.66 -24 31 C-24.33 52.12 -24.66 73.24 -25 95 C-26.65 95 -28.3 95 -30 95 C-30 83.45 -30 71.9 -30 60 C-32.475 60.495 -32.475 60.495 -35 61 C-35 52.42 -35 43.84 -35 35 C-33.35 35 -31.7 35 -30 35 C-30 33.35 -30 31.7 -30 30 C-28.35 30 -26.7 30 -25 30 C-25 26.7 -25 23.4 -25 20 C-23.35 20 -21.7 20 -20 20 C-20 18.35 -20 16.7 -20 15 C-18.35 15 -16.7 15 -15 15 C-15 13.35 -15 11.7 -15 10 C-13.35 10 -11.7 10 -10 10 C-10 8.35 -10 6.7 -10 5 C-6.7 5 -3.4 5 0 5 C0 3.35 0 1.7 0 0 Z " fill="#C8D2DD" transform="translate(190,145)"/>
<path d="M0 0 C1.65 0 3.3 0 5 0 C5 1.65 5 3.3 5 5 C6.65 5 8.3 5 10 5 C10 8.3 10 11.6 10 15 C8.35 15 6.7 15 5 15 C5 18.3 5 21.6 5 25 C3.35 25 1.7 25 0 25 C0 26.65 0 28.3 0 30 C-1.65 30 -3.3 30 -5 30 C-5 31.65 -5 33.3 -5 35 C-6.65 35 -8.3 35 -10 35 C-10 36.65 -10 38.3 -10 40 C-11.65 40 -13.3 40 -15 40 C-15 41.65 -15 43.3 -15 45 C-24.9 45 -34.8 45 -45 45 C-45 43.35 -45 41.7 -45 40 C-41.7 40 -38.4 40 -35 40 C-35 38.35 -35 36.7 -35 35 C-31.7 35 -28.4 35 -25 35 C-25 33.35 -25 31.7 -25 30 C-21.7 30 -18.4 30 -15 30 C-15 28.35 -15 26.7 -15 25 C-13.35 25 -11.7 25 -10 25 C-10 23.35 -10 21.7 -10 20 C-8.35 20 -6.7 20 -5 20 C-5 18.35 -5 16.7 -5 15 C-3.35 15 -1.7 15 0 15 C0 10.05 0 5.1 0 0 Z " fill="#97B2CC" transform="translate(355,245)"/>
<path d="M0 0 C16.5 0 33 0 50 0 C50 1.65 50 3.3 50 5 C51.65 5 53.3 5 55 5 C55 11.6 55 18.2 55 25 C56.65 25 58.3 25 60 25 C60 28.3 60 31.6 60 35 C58.35 35 56.7 35 55 35 C55 33.35 55 31.7 55 30 C53.35 30 51.7 30 50 30 C50 26.7 50 23.4 50 20 C48.35 20 46.7 20 45 20 C45 18.35 45 16.7 45 15 C43.35 15 41.7 15 40 15 C40 13.35 40 11.7 40 10 C31.75 10 23.5 10 15 10 C15 8.35 15 6.7 15 5 C10.05 5 5.1 5 0 5 C0 3.35 0 1.7 0 0 Z " fill="#7998B8" transform="translate(210,305)"/>
<path d="M0 0 C3.3 0 6.6 0 10 0 C10 3.3 10 6.6 10 10 C11.65 10 13.3 10 15 10 C15 11.65 15 13.3 15 15 C16.65 15 18.3 15 20 15 C20 18.3 20 21.6 20 25 C21.65 25 23.3 25 25 25 C25 26.65 25 28.3 25 30 C26.98 30 28.96 30 31 30 C30.67 31.65 30.34 33.3 30 35 C31.65 35 33.3 35 35 35 C35 36.65 35 38.3 35 40 C38.63 40 42.26 40 46 40 C45.67 41.65 45.34 43.3 45 45 C38.4 45 31.8 45 25 45 C25 43.35 25 41.7 25 40 C23.35 40 21.7 40 20 40 C20 38.35 20 36.7 20 35 C18.35 35 16.7 35 15 35 C15 33.35 15 31.7 15 30 C11.7 30 8.4 30 5 30 C5 23.4 5 16.8 5 10 C3.35 10 1.7 10 0 10 C0 6.7 0 3.4 0 0 Z " fill="#B0C8E0" transform="translate(165,240)"/>
<path d="M0 0 C1.65 0 3.3 0 5 0 C5 3.3 5 6.6 5 10 C6.65 10 8.3 10 10 10 C10 28.15 10 46.3 10 65 C6.7 65 3.4 65 0 65 C0 63.35 0 61.7 0 60 C-1.65 60 -3.3 60 -5 60 C-5 58.35 -5 56.7 -5 55 C-3.35 55 -1.7 55 0 55 C0 36.85 0 18.7 0 0 Z " fill="#ADC4DA" transform="translate(360,185)"/>
<path d="M0 0 C6.6 0 13.2 0 20 0 C20 1.65 20 3.3 20 5 C16.7 5 13.4 5 10 5 C10 6.65 10 8.3 10 10 C5.05 10 0.1 10 -5 10 C-5 11.65 -5 13.3 -5 15 C-6.65 15 -8.3 15 -10 15 C-10 23.25 -10 31.5 -10 40 C-11.65 40 -13.3 40 -15 40 C-15 38.35 -15 36.7 -15 35 C-16.65 35 -18.3 35 -20 35 C-20 30.05 -20 25.1 -20 20 C-21.65 20 -23.3 20 -25 20 C-25 16.7 -25 13.4 -25 10 C-23.35 10 -21.7 10 -20 10 C-20 11.65 -20 13.3 -20 15 C-18.35 15 -16.7 15 -15 15 C-15 13.35 -15 11.7 -15 10 C-13.35 10 -11.7 10 -10 10 C-10 8.35 -10 6.7 -10 5 C-6.7 5 -3.4 5 0 5 C0 3.35 0 1.7 0 0 Z " fill="#9AC1EA" transform="translate(290,290)"/>
<path d="M0 0 C8.25 0 16.5 0 25 0 C25 1.65 25 3.3 25 5 C23.35 5 21.7 5 20 5 C20 6.65 20 8.3 20 10 C16.7 10 13.4 10 10 10 C10 11.65 10 13.3 10 15 C6.7 15 3.4 15 0 15 C0 16.65 0 18.3 0 20 C-4.95 20 -9.9 20 -15 20 C-15 16.7 -15 13.4 -15 10 C-13.35 10 -11.7 10 -10 10 C-10 8.35 -10 6.7 -10 5 C-6.7 5 -3.4 5 0 5 C0 3.35 0 1.7 0 0 Z " fill="#84A3C2" transform="translate(310,290)"/>
<path d="M0 0 C1.65 0 3.3 0 5 0 C5 3.3 5 6.6 5 10 C3.35 10 1.7 10 0 10 C0 11.65 0 13.3 0 15 C-1.65 15 -3.3 15 -5 15 C-5 16.65 -5 18.3 -5 20 C-6.65 20 -8.3 20 -10 20 C-10 21.65 -10 23.3 -10 25 C-13.3 25 -16.6 25 -20 25 C-20 26.65 -20 28.3 -20 30 C-23.3 30 -26.6 30 -30 30 C-30 31.65 -30 33.3 -30 35 C-33.3 35 -36.6 35 -40 35 C-40 33.35 -40 31.7 -40 30 C-38.35 30 -36.7 30 -35 30 C-35 28.35 -35 26.7 -35 25 C-31.7 25 -28.4 25 -25 25 C-25 23.35 -25 21.7 -25 20 C-23.35 20 -21.7 20 -20 20 C-20 16.7 -20 13.4 -20 10 C-15.05 10 -10.1 10 -5 10 C-5 8.35 -5 6.7 -5 5 C-3.35 5 -1.7 5 0 5 C0 3.35 0 1.7 0 0 Z " fill="#A1C2E3" transform="translate(350,250)"/>
<path d="M0 0 C6.6 0 13.2 0 20 0 C20 1.65 20 3.3 20 5 C21.65 5 23.3 5 25 5 C25 8.3 25 11.6 25 15 C23.35 15 21.7 15 20 15 C20 13.35 20 11.7 20 10 C15.05 10 10.1 10 5 10 C5 14.95 5 19.9 5 25 C1.7 25 -1.6 25 -5 25 C-5 18.4 -5 11.8 -5 5 C-3.35 5 -1.7 5 0 5 C0 3.35 0 1.7 0 0 Z " fill="#00287A" transform="translate(250,150)"/>
<path d="M0 0 C3.3 0 6.6 0 10 0 C10 1.65 10 3.3 10 5 C11.65 5 13.3 5 15 5 C15 18.2 15 31.4 15 45 C13.35 45 11.7 45 10 45 C10 40.05 10 35.1 10 30 C8.35 30 6.7 30 5 30 C5 25.05 5 20.1 5 15 C3.35 15 1.7 15 0 15 C0 10.05 0 5.1 0 0 Z " fill="#D8E4F0" transform="translate(335,155)"/>
<path d="M0 0 C1.65 0 3.3 0 5 0 C5 24.75 5 49.5 5 75 C3.35 75 1.7 75 0 75 C0 50.25 0 25.5 0 0 Z " fill="#6686BC" transform="translate(275,195)"/>
<path d="M0 0 C5.28 0 10.56 0 16 0 C15.67 1.65 15.34 3.3 15 5 C10.545 5.495 10.545 5.495 6 6 C5.67 7.32 5.34 8.64 5 10 C3.68 10.33 2.36 10.66 1 11 C0.67 12.32 0.34 13.64 0 15 C-1.32 15.33 -2.64 15.66 -4 16 C-4.33 18.97 -4.66 21.94 -5 25 C-6.32 25.33 -7.64 25.66 -9 26 C-9.33 27.32 -9.66 28.64 -10 30 C-11.32 30.33 -12.64 30.66 -14 31 C-14.33 32.32 -14.66 33.64 -15 35 C-16.65 35 -18.3 35 -20 35 C-20 30.05 -20 25.1 -20 20 C-16.7 20 -13.4 20 -10 20 C-10 16.7 -10 13.4 -10 10 C-6.7 10 -3.4 10 0 10 C0 6.7 0 3.4 0 0 Z " fill="#EDF0F2" transform="translate(195,155)"/>
<path d="M0 0 C1.65 0 3.3 0 5 0 C5 21.45 5 42.9 5 65 C3.35 65 1.7 65 0 65 C0 43.55 0 22.1 0 0 Z " fill="#002E89" transform="translate(270,205)"/>
<path d="M0 0 C1.65 0 3.3 0 5 0 C5 19.8 5 39.6 5 60 C3.35 60 1.7 60 0 60 C0 40.2 0 20.4 0 0 Z " fill="#6683B3" transform="translate(245,215)"/>
<path d="M0 0 C3.3 0 6.6 0 10 0 C10 1.65 10 3.3 10 5 C8.35 5 6.7 5 5 5 C5 18.2 5 31.4 5 45 C1.7 45 -1.6 45 -5 45 C-5 43.35 -5 41.7 -5 40 C-3.35 40 -1.7 40 0 40 C0 26.8 0 13.6 0 0 Z " fill="#487AB1" transform="translate(285,310)"/>
<path d="M0 0 C1.65 0 3.3 0 5 0 C5 18.15 5 36.3 5 55 C3.35 55 1.7 55 0 55 C0 36.85 0 18.7 0 0 Z " fill="#002B82" transform="translate(250,215)"/>
<path d="M0 0 C6.6 0 13.2 0 20 0 C20 1.65 20 3.3 20 5 C24.95 5 29.9 5 35 5 C35 6.65 35 8.3 35 10 C25.1 10 15.2 10 5 10 C5 8.35 5 6.7 5 5 C3.35 5 1.7 5 0 5 C0 3.35 0 1.7 0 0 Z " fill="#A0BEDE" transform="translate(200,285)"/>
<path d="M0 0 C6.6 0 13.2 0 20 0 C20 3.3 20 6.6 20 10 C10.1 10 0.2 10 -10 10 C-10 8.35 -10 6.7 -10 5 C-6.7 5 -3.4 5 0 5 C0 3.35 0 1.7 0 0 Z " fill="#2052B6" transform="translate(255,275)"/>
<path d="M0 0 C4.95 0 9.9 0 15 0 C15 3.3 15 6.6 15 10 C16.65 10 18.3 10 20 10 C20 13.3 20 16.6 20 20 C16.7 20 13.4 20 10 20 C10 16.7 10 13.4 10 10 C6.7 10 3.4 10 0 10 C0 6.7 0 3.4 0 0 Z " fill="#A4B6C7" transform="translate(150,240)"/>
<path d="M0 0 C1.65 0 3.3 0 5 0 C5 1.65 5 3.3 5 5 C3.68 5.33 2.36 5.66 1 6 C0.67 7.32 0.34 8.64 0 10 C-1.32 10.33 -2.64 10.66 -4 11 C-4.33 12.32 -4.66 13.64 -5 15 C-6.32 15.33 -7.64 15.66 -9 16 C-9.33 17.32 -9.66 18.64 -10 20 C-11.32 20.33 -12.64 20.66 -14 21 C-14.33 22.32 -14.66 23.64 -15 25 C-18.69541586 25.95024979 -21.30458414 25.95024979 -25 25 C-25 23.35 -25 21.7 -25 20 C-23.35 20 -21.7 20 -20 20 C-20 18.35 -20 16.7 -20 15 C-18.35 15 -16.7 15 -15 15 C-15 13.35 -15 11.7 -15 10 C-13.35 10 -11.7 10 -10 10 C-10 8.35 -10 6.7 -10 5 C-6.7 5 -3.4 5 0 5 C0 3.35 0 1.7 0 0 Z " fill="#D7DEE5" transform="translate(190,145)"/>
<path d="M0 0 C1.65 0 3.3 0 5 0 C5 1.65 5 3.3 5 5 C6.65 5 8.3 5 10 5 C10 11.6 10 18.2 10 25 C11.65 25 13.3 25 15 25 C15 28.3 15 31.6 15 35 C13.35 35 11.7 35 10 35 C10 33.35 10 31.7 10 30 C8.35 30 6.7 30 5 30 C5 23.4 5 16.8 5 10 C3.35 10 1.7 10 0 10 C0 6.7 0 3.4 0 0 Z " fill="#7FA2C4" transform="translate(255,305)"/>
<path d="M0 0 C1.65 0 3.3 0 5 0 C5 4.95 5 9.9 5 15 C-3.25 15 -11.5 15 -20 15 C-20 13.35 -20 11.7 -20 10 C-16.7 10 -13.4 10 -10 10 C-10 8.35 -10 6.7 -10 5 C-6.7 5 -3.4 5 0 5 C0 3.35 0 1.7 0 0 Z " fill="#87A5C3" transform="translate(330,275)"/>
<path d="M0 0 C4.95 0 9.9 0 15 0 C15 1.65 15 3.3 15 5 C13.35 5 11.7 5 10 5 C10 6.65 10 8.3 10 10 C8.35 10 6.7 10 5 10 C5 11.65 5 13.3 5 15 C3.35 15 1.7 15 0 15 C0 16.65 0 18.3 0 20 C-1.65 20 -3.3 20 -5 20 C-5 15.05 -5 10.1 -5 5 C-3.35 5 -1.7 5 0 5 C0 3.35 0 1.7 0 0 Z " fill="#89A7C4" transform="translate(340,270)"/>
<path d="M0 0 C3.3 0 6.6 0 10 0 C10 3.3 10 6.6 10 10 C11.65 10 13.3 10 15 10 C15 11.65 15 13.3 15 15 C16.65 15 18.3 15 20 15 C20 16.65 20 18.3 20 20 C15.05 20 10.1 20 5 20 C5 16.7 5 13.4 5 10 C3.35 10 1.7 10 0 10 C0 6.7 0 3.4 0 0 Z " fill="#C0D4E7" transform="translate(165,240)"/>
<path d="M0 0 C8.25 0 16.5 0 25 0 C25 1.65 25 3.3 25 5 C21.7 5 18.4 5 15 5 C15 6.65 15 8.3 15 10 C10.05 10 5.1 10 0 10 C0 6.7 0 3.4 0 0 Z " fill="#7E9EBD" transform="translate(295,300)"/>
<path d="M0 0 C1.65 0 3.3 0 5 0 C5 3.3 5 6.6 5 10 C3.35 10 1.7 10 0 10 C0 11.65 0 13.3 0 15 C-1.65 15 -3.3 15 -5 15 C-5 16.65 -5 18.3 -5 20 C-6.65 20 -8.3 20 -10 20 C-10 21.65 -10 23.3 -10 25 C-11.65 25 -13.3 25 -15 25 C-15 21.7 -15 18.4 -15 15 C-13.35 15 -11.7 15 -10 15 C-10 13.35 -10 11.7 -10 10 C-8.35 10 -6.7 10 -5 10 C-5 8.35 -5 6.7 -5 5 C-3.35 5 -1.7 5 0 5 C0 3.35 0 1.7 0 0 Z " fill="#99B5D2" transform="translate(350,250)"/>
<path d="M0 0 C1.65 0 3.3 0 5 0 C5 1.65 5 3.3 5 5 C6.65 5 8.3 5 10 5 C10 11.6 10 18.2 10 25 C8.35 25 6.7 25 5 25 C5 21.7 5 18.4 5 15 C3.35 15 1.7 15 0 15 C0 13.35 0 11.7 0 10 C-1.65 10 -3.3 10 -5 10 C-5 8.35 -5 6.7 -5 5 C-3.35 5 -1.7 5 0 5 C0 3.35 0 1.7 0 0 Z " fill="#EBFCFF" transform="translate(335,180)"/>
<path d="M0 0 C4.95 0 9.9 0 15 0 C15 1.65 15 3.3 15 5 C16.65 5 18.3 5 20 5 C20 8.3 20 11.6 20 15 C18.35 15 16.7 15 15 15 C15 13.35 15 11.7 15 10 C10.05 10 5.1 10 0 10 C0 6.7 0 3.4 0 0 Z " fill="#002776" transform="translate(255,150)"/>
<path d="M0 0 C6.6 0 13.2 0 20 0 C20 1.65 20 3.3 20 5 C16.7 5 13.4 5 10 5 C10 6.65 10 8.3 10 10 C6.7 10 3.4 10 0 10 C0 6.7 0 3.4 0 0 Z " fill="#90B2D3" transform="translate(290,290)"/>
<path d="M0 0 C6.6 0 13.2 0 20 0 C20 1.65 20 3.3 20 5 C16.7 5 13.4 5 10 5 C10 6.65 10 8.3 10 10 C6.7 10 3.4 10 0 10 C0 6.7 0 3.4 0 0 Z " fill="#1F4FAE" transform="translate(235,275)"/>
<path d="M0 0 C1.65 0 3.3 0 5 0 C5 3.3 5 6.6 5 10 C3.35 10 1.7 10 0 10 C0 11.65 0 13.3 0 15 C-1.65 15 -3.3 15 -5 15 C-5 16.65 -5 18.3 -5 20 C-6.65 20 -8.3 20 -10 20 C-10 16.7 -10 13.4 -10 10 C-8.35 10 -6.7 10 -5 10 C-5 8.35 -5 6.7 -5 5 C-3.35 5 -1.7 5 0 5 C0 3.35 0 1.7 0 0 Z " fill="#ABC8E5" transform="translate(350,240)"/>
<path d="M0 0 C3.3 0 6.6 0 10 0 C10 1.65 10 3.3 10 5 C8.35 5 6.7 5 5 5 C5 9.95 5 14.9 5 20 C3.35 20 1.7 20 0 20 C0 13.4 0 6.8 0 0 Z " fill="#6689B3" transform="translate(285,310)"/>
<path d="M0 0 C1.65 0 3.3 0 5 0 C5 1.65 5 3.3 5 5 C8.3 5 11.6 5 15 5 C15 8.3 15 11.6 15 15 C13.35 15 11.7 15 10 15 C10 13.35 10 11.7 10 10 C6.7 10 3.4 10 0 10 C0 6.7 0 3.4 0 0 Z " fill="#0C3C9C" transform="translate(275,270)"/>
<path d="M0 0 C1.65 0 3.3 0 5 0 C5 3.3 5 6.6 5 10 C6.65 10 8.3 10 10 10 C10 13.3 10 16.6 10 20 C8.35 20 6.7 20 5 20 C5 18.35 5 16.7 5 15 C3.35 15 1.7 15 0 15 C0 10.05 0 5.1 0 0 Z " fill="#83A0BE" transform="translate(155,250)"/>
<path d="M0 0 C8.25 0 16.5 0 25 0 C25 1.65 25 3.3 25 5 C16.75 5 8.5 5 0 5 C0 3.35 0 1.7 0 0 Z " fill="#7185A6" transform="translate(235,195)"/>
<path d="M0 0 C3.3 0 6.6 0 10 0 C10 1.65 10 3.3 10 5 C11.65 5 13.3 5 15 5 C15 6.65 15 8.3 15 10 C10.05 10 5.1 10 0 10 C0 6.7 0 3.4 0 0 Z " fill="#2957B2" transform="translate(260,170)"/>
<path d="M0 0 C1.65 0 3.3 0 5 0 C5 1.65 5 3.3 5 5 C8.63 5 12.26 5 16 5 C15.67 6.65 15.34 8.3 15 10 C10.05 10 5.1 10 0 10 C0 6.7 0 3.4 0 0 Z " fill="#A5C0DC" transform="translate(195,275)"/>
<path d="M0 0 C6.93 0 13.86 0 21 0 C20.67 1.65 20.34 3.3 20 5 C13.4 5 6.8 5 0 5 C0 3.35 0 1.7 0 0 Z " fill="#E2E6EB" transform="translate(220,130)"/>
<path d="M0 0 C6.6 0 13.2 0 20 0 C20 1.65 20 3.3 20 5 C13.4 5 6.8 5 0 5 C0 3.35 0 1.7 0 0 Z " fill="#6382A8" transform="translate(225,310)"/>
<path d="M0 0 C6.6 0 13.2 0 20 0 C20 1.65 20 3.3 20 5 C13.4 5 6.8 5 0 5 C0 3.35 0 1.7 0 0 Z " fill="#81A0BF" transform="translate(300,295)"/>
<path d="M0 0 C6.6 0 13.2 0 20 0 C20 1.65 20 3.3 20 5 C13.4 5 6.8 5 0 5 C0 3.35 0 1.7 0 0 Z " fill="#8FADCB" transform="translate(215,295)"/>
<path d="M0 0 C3.3 0 6.6 0 10 0 C10 1.65 10 3.3 10 5 C11.65 5 13.3 5 15 5 C15 6.65 15 8.3 15 10 C11.7 10 8.4 10 5 10 C5 8.35 5 6.7 5 5 C3.35 5 1.7 5 0 5 C0 3.35 0 1.7 0 0 Z " fill="#6D8FB1" transform="translate(185,290)"/>
<path d="M0 0 C3.3 0 6.6 0 10 0 C10 1.65 10 3.3 10 5 C11.65 5 13.3 5 15 5 C15 6.65 15 8.3 15 10 C11.7 10 8.4 10 5 10 C5 8.35 5 6.7 5 5 C3.35 5 1.7 5 0 5 C0 3.35 0 1.7 0 0 Z " fill="#97B4D0" transform="translate(200,285)"/>
<path d="M0 0 C6.6 0 13.2 0 20 0 C20 1.65 20 3.3 20 5 C13.4 5 6.8 5 0 5 C0 3.35 0 1.7 0 0 Z " fill="#4777D7" transform="translate(255,275)"/>
<path d="M0 0 C1.65 0 3.3 0 5 0 C5 6.6 5 13.2 5 20 C3.35 20 1.7 20 0 20 C0 13.4 0 6.8 0 0 Z " fill="#8FADD0" transform="translate(365,230)"/>
<path d="M0 0 C1.65 0 3.3 0 5 0 C5 4.95 5 9.9 5 15 C3.35 15 1.7 15 0 15 C0 13.35 0 11.7 0 10 C-1.65 10 -3.3 10 -5 10 C-5 8.35 -5 6.7 -5 5 C-3.35 5 -1.7 5 0 5 C0 3.35 0 1.7 0 0 Z " fill="#F5FFFF" transform="translate(335,180)"/>
<path d="M0 0 C3.3 0 6.6 0 10 0 C10 1.65 10 3.3 10 5 C8.35 5 6.7 5 5 5 C5 8.3 5 11.6 5 15 C3.35 15 1.7 15 0 15 C0 10.05 0 5.1 0 0 Z " fill="#E7ECF2" transform="translate(175,175)"/>
<path d="M0 0 C3.3 0 6.6 0 10 0 C10 3.3 10 6.6 10 10 C6.7 10 3.4 10 0 10 C0 6.7 0 3.4 0 0 Z " fill="#002570" transform="translate(255,150)"/>
<path d="M0 0 C6.6 0 13.2 0 20 0 C20 1.65 20 3.3 20 5 C13.4 5 6.8 5 0 5 C0 3.35 0 1.7 0 0 Z " fill="#D6E2ED" transform="translate(280,130)"/>
<path d="M0 0 C3.3 0 6.6 0 10 0 C10 3.3 10 6.6 10 10 C8.35 10 6.7 10 5 10 C5 8.35 5 6.7 5 5 C3.35 5 1.7 5 0 5 C0 3.35 0 1.7 0 0 Z " fill="#7DA7D0" transform="translate(270,340)"/>
<path d="M0 0 C3.3 0 6.6 0 10 0 C10 3.3 10 6.6 10 10 C8.35 10 6.7 10 5 10 C5 8.35 5 6.7 5 5 C3.35 5 1.7 5 0 5 C0 3.35 0 1.7 0 0 Z " fill="#789FC6" transform="translate(260,330)"/>
<path d="M0 0 C4.95 0 9.9 0 15 0 C15 1.65 15 3.3 15 5 C10.05 5 5.1 5 0 5 C0 3.35 0 1.7 0 0 Z " fill="#5884B1" transform="translate(295,305)"/>
<path d="M0 0 C4.95 0 9.9 0 15 0 C15 1.65 15 3.3 15 5 C10.05 5 5.1 5 0 5 C0 3.35 0 1.7 0 0 Z " fill="#86A0BB" transform="translate(200,295)"/>
<path d="M0 0 C3.3 0 6.6 0 10 0 C10 3.3 10 6.6 10 10 C8.35 10 6.7 10 5 10 C5 8.35 5 6.7 5 5 C3.35 5 1.7 5 0 5 C0 3.35 0 1.7 0 0 Z " fill="#6A8BB1" transform="translate(165,275)"/>
<path d="M0 0 C1.65 0 3.3 0 5 0 C5 3.3 5 6.6 5 10 C1.7 10 -1.6 10 -5 10 C-5 8.35 -5 6.7 -5 5 C-3.35 5 -1.7 5 0 5 C0 3.35 0 1.7 0 0 Z " fill="#8CAAC7" transform="translate(350,260)"/>
<path d="M0 0 C1.65 0 3.3 0 5 0 C5 1.65 5 3.3 5 5 C6.65 5 8.3 5 10 5 C10 6.65 10 8.3 10 10 C6.7 10 3.4 10 0 10 C0 6.7 0 3.4 0 0 Z " fill="#9DB2C6" transform="translate(170,260)"/>
<path d="M0 0 C3.3 0 6.6 0 10 0 C10 1.65 10 3.3 10 5 C8.35 5 6.7 5 5 5 C5 6.65 5 8.3 5 10 C3.35 10 1.7 10 0 10 C0 6.7 0 3.4 0 0 Z " fill="#ABCBEA" transform="translate(330,260)"/>
<path d="M0 0 C1.65 0 3.3 0 5 0 C5 1.65 5 3.3 5 5 C6.65 5 8.3 5 10 5 C10 6.65 10 8.3 10 10 C6.7 10 3.4 10 0 10 C0 6.7 0 3.4 0 0 Z " fill="#B9CEE5" transform="translate(175,250)"/>
<path d="M0 0 C3.3 0 6.6 0 10 0 C10 3.3 10 6.6 10 10 C8.35 10 6.7 10 5 10 C5 8.35 5 6.7 5 5 C3.35 5 1.7 5 0 5 C0 3.35 0 1.7 0 0 Z " fill="#00308E" transform="translate(240,205)"/>
<path d="M0 0 C1.65 0 3.3 0 5 0 C5 1.65 5 3.3 5 5 C6.65 5 8.3 5 10 5 C10 6.65 10 8.3 10 10 C6.7 10 3.4 10 0 10 C0 6.7 0 3.4 0 0 Z " fill="#C6D7EF" transform="translate(230,200)"/>
<path d="M0 0 C4.95 0 9.9 0 15 0 C15 1.65 15 3.3 15 5 C10.05 5 5.1 5 0 5 C0 3.35 0 1.7 0 0 Z " fill="#364F7D" transform="translate(260,195)"/>
<path d="M0 0 C1.65 0 3.3 0 5 0 C5 3.3 5 6.6 5 10 C1.7 10 -1.6 10 -5 10 C-5 8.35 -5 6.7 -5 5 C-3.35 5 -1.7 5 0 5 C0 3.35 0 1.7 0 0 Z " fill="#1445A8" transform="translate(255,170)"/>
<path d="M0 0 C1.65 0 3.3 0 5 0 C5 1.65 5 3.3 5 5 C6.65 5 8.3 5 10 5 C10 6.65 10 8.3 10 10 C6.7 10 3.4 10 0 10 C0 6.7 0 3.4 0 0 Z " fill="#CCD9E7" transform="translate(340,155)"/>
<path d="M0 0 C1.65 0 3.3 0 5 0 C5 3.3 5 6.6 5 10 C1.7 10 -1.6 10 -5 10 C-5 8.35 -5 6.7 -5 5 C-3.35 5 -1.7 5 0 5 C0 3.35 0 1.7 0 0 Z " fill="#163168" transform="translate(250,150)"/>
<path d="M0 0 C1.65 0 3.3 0 5 0 C5 1.65 5 3.3 5 5 C3.68 5.33 2.36 5.66 1 6 C0.67 7.32 0.34 8.64 0 10 C-1.65 10.33 -3.3 10.66 -5 11 C-5 9.02 -5 7.04 -5 5 C-3.35 5 -1.7 5 0 5 C0 3.35 0 1.7 0 0 Z " fill="#F3F8FD" transform="translate(185,175)"/>
<path d="M0 0 C3.63 0 7.26 0 11 0 C10.67 1.65 10.34 3.3 10 5 C6.7 5.33 3.4 5.66 0 6 C0 4.02 0 2.04 0 0 Z " fill="#F4F6F8" transform="translate(200,155)"/>
<path d="M0 0 C1.65 0 3.3 0 5 0 C5 3.3 5 6.6 5 10 C3.35 10.33 1.7 10.66 0 11 C0 7.37 0 3.74 0 0 Z " fill="#6E88B2" transform="translate(275,195)"/>
<path d="M0 0 C3.3 0 6.6 0 10 0 C10 1.65 10 3.3 10 5 C6.7 5 3.4 5 0 5 C0 3.35 0 1.7 0 0 Z " fill="#33598D" transform="translate(280,350)"/>
<path d="M0 0 C1.65 0 3.3 0 5 0 C5 3.3 5 6.6 5 10 C3.35 10 1.7 10 0 10 C0 6.7 0 3.4 0 0 Z " fill="#7BA8D5" transform="translate(280,340)"/>
<path d="M0 0 C3.3 0 6.6 0 10 0 C10 1.65 10 3.3 10 5 C6.7 5 3.4 5 0 5 C0 3.35 0 1.7 0 0 Z " fill="#86B1DA" transform="translate(270,335)"/>
<path d="M0 0 C3.3 0 6.6 0 10 0 C10 1.65 10 3.3 10 5 C6.7 5 3.4 5 0 5 C0 3.35 0 1.7 0 0 Z " fill="#53749F" transform="translate(225,310)"/>
<path d="M0 0 C1.65 0 3.3 0 5 0 C5 3.3 5 6.6 5 10 C3.35 10 1.7 10 0 10 C0 6.7 0 3.4 0 0 Z " fill="#81A2C3" transform="translate(290,300)"/>
<path d="M0 0 C1.65 0 3.3 0 5 0 C5 3.3 5 6.6 5 10 C3.35 10 1.7 10 0 10 C0 6.7 0 3.4 0 0 Z " fill="#88ABCD" transform="translate(285,300)"/>
<path d="M0 0 C3.3 0 6.6 0 10 0 C10 1.65 10 3.3 10 5 C6.7 5 3.4 5 0 5 C0 3.35 0 1.7 0 0 Z " fill="#5277A3" transform="translate(210,305)"/>
<path d="M0 0 C3.3 0 6.6 0 10 0 C10 1.65 10 3.3 10 5 C6.7 5 3.4 5 0 5 C0 3.35 0 1.7 0 0 Z " fill="#507BAA" transform="translate(310,300)"/>
<path d="M0 0 C3.3 0 6.6 0 10 0 C10 1.65 10 3.3 10 5 C6.7 5 3.4 5 0 5 C0 3.35 0 1.7 0 0 Z " fill="#6A8DB1" transform="translate(200,300)"/>
<path d="M0 0 C3.3 0 6.6 0 10 0 C10 1.65 10 3.3 10 5 C6.7 5 3.4 5 0 5 C0 3.35 0 1.7 0 0 Z " fill="#8CAECF" transform="translate(290,295)"/>
<path d="M0 0 C3.3 0 6.6 0 10 0 C10 1.65 10 3.3 10 5 C6.7 5 3.4 5 0 5 C0 3.35 0 1.7 0 0 Z " fill="#9CC0E4" transform="translate(290,290)"/>
<path d="M0 0 C3.3 0 6.6 0 10 0 C10 1.65 10 3.3 10 5 C6.7 5 3.4 5 0 5 C0 3.35 0 1.7 0 0 Z " fill="#7E9AB6" transform="translate(185,290)"/>
<path d="M0 0 C3.3 0 6.6 0 10 0 C10 1.65 10 3.3 10 5 C6.7 5 3.4 5 0 5 C0 3.35 0 1.7 0 0 Z " fill="#92B4D4" transform="translate(310,285)"/>
<path d="M0 0 C3.3 0 6.6 0 10 0 C10 1.65 10 3.3 10 5 C6.7 5 3.4 5 0 5 C0 3.35 0 1.7 0 0 Z " fill="#9EC1E4" transform="translate(300,285)"/>
<path d="M0 0 C3.3 0 6.6 0 10 0 C10 1.65 10 3.3 10 5 C6.7 5 3.4 5 0 5 C0 3.35 0 1.7 0 0 Z " fill="#ADCCEB" transform="translate(210,285)"/>
<path d="M0 0 C3.3 0 6.6 0 10 0 C10 1.65 10 3.3 10 5 C6.7 5 3.4 5 0 5 C0 3.35 0 1.7 0 0 Z " fill="#A0BDDA" transform="translate(200,285)"/>
<path d="M0 0 C3.3 0 6.6 0 10 0 C10 1.65 10 3.3 10 5 C6.7 5 3.4 5 0 5 C0 3.35 0 1.7 0 0 Z " fill="#7193B5" transform="translate(175,285)"/>
<path d="M0 0 C3.3 0 6.6 0 10 0 C10 1.65 10 3.3 10 5 C6.7 5 3.4 5 0 5 C0 3.35 0 1.7 0 0 Z " fill="#91B0D0" transform="translate(320,280)"/>
<path d="M0 0 C1.65 0 3.3 0 5 0 C5 3.3 5 6.6 5 10 C3.35 10 1.7 10 0 10 C0 6.7 0 3.4 0 0 Z " fill="#88AFE1" transform="translate(290,275)"/>
<path d="M0 0 C3.3 0 6.6 0 10 0 C10 1.65 10 3.3 10 5 C6.7 5 3.4 5 0 5 C0 3.35 0 1.7 0 0 Z " fill="#79ABFF" transform="translate(275,280)"/>
<path d="M0 0 C3.3 0 6.6 0 10 0 C10 1.65 10 3.3 10 5 C6.7 5 3.4 5 0 5 C0 3.35 0 1.7 0 0 Z " fill="#0A3A98" transform="translate(235,280)"/>
<path d="M0 0 C3.3 0 6.6 0 10 0 C10 1.65 10 3.3 10 5 C6.7 5 3.4 5 0 5 C0 3.35 0 1.7 0 0 Z " fill="#8DA4BA" transform="translate(175,280)"/>
<path d="M0 0 C3.3 0 6.6 0 10 0 C10 1.65 10 3.3 10 5 C6.7 5 3.4 5 0 5 C0 3.35 0 1.7 0 0 Z " fill="#2D5192" transform="translate(235,275)"/>
<path d="M0 0 C1.65 0 3.3 0 5 0 C5 3.3 5 6.6 5 10 C3.35 10 1.7 10 0 10 C0 6.7 0 3.4 0 0 Z " fill="#93A8BD" transform="translate(165,260)"/>
<path d="M0 0 C1.65 0 3.3 0 5 0 C5 3.3 5 6.6 5 10 C3.35 10 1.7 10 0 10 C0 6.7 0 3.4 0 0 Z " fill="#AEC2D7" transform="translate(170,250)"/>
<path d="M0 0 C1.65 0 3.3 0 5 0 C5 3.3 5 6.6 5 10 C3.35 10 1.7 10 0 10 C0 6.7 0 3.4 0 0 Z " fill="#84A3C1" transform="translate(155,250)"/>
<path d="M0 0 C1.65 0 3.3 0 5 0 C5 3.3 5 6.6 5 10 C3.35 10 1.7 10 0 10 C0 6.7 0 3.4 0 0 Z " fill="#B4C6D9" transform="translate(165,240)"/>
<path d="M0 0 C1.65 0 3.3 0 5 0 C5 3.3 5 6.6 5 10 C3.35 10 1.7 10 0 10 C0 6.7 0 3.4 0 0 Z " fill="#90ACCA" transform="translate(150,240)"/>
<path d="M0 0 C1.65 0 3.3 0 5 0 C5 3.3 5 6.6 5 10 C3.35 10 1.7 10 0 10 C0 6.7 0 3.4 0 0 Z " fill="#BCD8F3" transform="translate(345,235)"/>
<path d="M0 0 C1.65 0 3.3 0 5 0 C5 3.3 5 6.6 5 10 C3.35 10 1.7 10 0 10 C0 6.7 0 3.4 0 0 Z " fill="#A0B5CA" transform="translate(150,230)"/>
<path d="M0 0 C1.65 0 3.3 0 5 0 C5 3.3 5 6.6 5 10 C3.35 10 1.7 10 0 10 C0 6.7 0 3.4 0 0 Z " fill="#98B4D2" transform="translate(365,195)"/>
<path d="M0 0 C3.3 0 6.6 0 10 0 C10 1.65 10 3.3 10 5 C6.7 5 3.4 5 0 5 C0 3.35 0 1.7 0 0 Z " fill="#00246C" transform="translate(235,200)"/>
<path d="M0 0 C1.65 0 3.3 0 5 0 C5 3.3 5 6.6 5 10 C3.35 10 1.7 10 0 10 C0 6.7 0 3.4 0 0 Z " fill="#B2C9DE" transform="translate(150,190)"/>
<path d="M0 0 C1.65 0 3.3 0 5 0 C5 3.3 5 6.6 5 10 C3.35 10 1.7 10 0 10 C0 6.7 0 3.4 0 0 Z " fill="#BECDDE" transform="translate(155,180)"/>
<path d="M0 0 C1.65 0 3.3 0 5 0 C5 3.3 5 6.6 5 10 C3.35 10 1.7 10 0 10 C0 6.7 0 3.4 0 0 Z " fill="#BED1E3" transform="translate(355,175)"/>
<path d="M0 0 C3.3 0 6.6 0 10 0 C10 1.65 10 3.3 10 5 C6.7 5 3.4 5 0 5 C0 3.35 0 1.7 0 0 Z " fill="#76A7FF" transform="translate(260,170)"/>
<path d="M0 0 C3.3 0 6.6 0 10 0 C10 1.65 10 3.3 10 5 C6.7 5 3.4 5 0 5 C0 3.35 0 1.7 0 0 Z " fill="#012D87" transform="translate(245,170)"/>
<path d="M0 0 C1.65 0 3.3 0 5 0 C5 3.3 5 6.6 5 10 C3.35 10 1.7 10 0 10 C0 6.7 0 3.4 0 0 Z " fill="#5978B3" transform="translate(275,160)"/>
<path d="M0 0 C1.65 0 3.3 0 5 0 C5 3.3 5 6.6 5 10 C3.35 10 1.7 10 0 10 C0 6.7 0 3.4 0 0 Z " fill="#002268" transform="translate(245,160)"/>
<path d="M0 0 C1.65 0 3.3 0 5 0 C5 3.3 5 6.6 5 10 C3.35 10 1.7 10 0 10 C0 6.7 0 3.4 0 0 Z " fill="#B7C3D7" transform="translate(240,160)"/>
<path d="M0 0 C1.65 0 3.3 0 5 0 C5 3.3 5 6.6 5 10 C3.35 10 1.7 10 0 10 C0 6.7 0 3.4 0 0 Z " fill="#002369" transform="translate(265,150)"/>
<path d="M0 0 C3.3 0 6.6 0 10 0 C10 1.65 10 3.3 10 5 C6.7 5 3.4 5 0 5 C0 3.35 0 1.7 0 0 Z " fill="#001A4F" transform="translate(255,150)"/>
<path d="M0 0 C3.3 0 6.6 0 10 0 C10 1.65 10 3.3 10 5 C6.7 5 3.4 5 0 5 C0 3.35 0 1.7 0 0 Z " fill="#D5E0ED" transform="translate(195,140)"/>
<path d="M0 0 C3.3 0 6.6 0 10 0 C10 1.65 10 3.3 10 5 C6.7 5 3.4 5 0 5 C0 3.35 0 1.7 0 0 Z " fill="#D0DFEE" transform="translate(205,135)"/>
<path d="M0 0 C3.3 0 6.6 0 10 0 C10 1.65 10 3.3 10 5 C6.7 5 3.4 5 0 5 C0 3.35 0 1.7 0 0 Z " fill="#CCDCEB" transform="translate(220,130)"/>
<path d="M0 0 C1.98 0 3.96 0 6 0 C5.67 1.65 5.34 3.3 5 5 C3.35 5.33 1.7 5.66 0 6 C0 4.02 0 2.04 0 0 Z " fill="#DAE0E4" transform="translate(175,160)"/>
<path d="M0 0 C1.65 0 3.3 0 5 0 C5 1.65 5 3.3 5 5 C3.35 5.33 1.7 5.66 0 6 C0 4.02 0 2.04 0 0 Z " fill="#8FB3D8" transform="translate(265,310)"/>
<path d="M0 0 C1.98 0 3.96 0 6 0 C5.67 1.65 5.34 3.3 5 5 C3.35 5 1.7 5 0 5 C0 3.35 0 1.7 0 0 Z " fill="#ABCCEE" transform="translate(235,290)"/>
<path d="M0 0 C1.98 0 3.96 0 6 0 C5.67 1.65 5.34 3.3 5 5 C3.35 5 1.7 5 0 5 C0 3.35 0 1.7 0 0 Z " fill="#B1CFED" transform="translate(205,280)"/>
<path d="M0 0 C1.98 0 3.96 0 6 0 C5.67 1.65 5.34 3.3 5 5 C3.35 5 1.7 5 0 5 C0 3.35 0 1.7 0 0 Z " fill="#BBD8F6" transform="translate(200,275)"/>
<path d="M0 0 C1.98 0 3.96 0 6 0 C5.67 1.65 5.34 3.3 5 5 C3.35 5 1.7 5 0 5 C0 3.35 0 1.7 0 0 Z " fill="#B3CCE6" transform="translate(190,270)"/>
<path d="M0 0 C1.65 0 3.3 0 5 0 C5 1.65 5 3.3 5 5 C3.35 5.33 1.7 5.66 0 6 C0 4.02 0 2.04 0 0 Z " fill="#EEF5FD" transform="translate(175,190)"/>
<path d="M0 0 C1.65 0 3.3 0 5 0 C5 1.65 5 3.3 5 5 C3.35 5.33 1.7 5.66 0 6 C0 4.02 0 2.04 0 0 Z " fill="#CFD9E2" transform="translate(165,170)"/>
<path d="M0 0 C1.98 0 3.96 0 6 0 C5.67 1.65 5.34 3.3 5 5 C3.35 5 1.7 5 0 5 C0 3.35 0 1.7 0 0 Z " fill="#E7EAEC" transform="translate(205,140)"/>
<path d="M0 0 C1.98 0 3.96 0 6 0 C5.67 1.65 5.34 3.3 5 5 C3.35 5 1.7 5 0 5 C0 3.35 0 1.7 0 0 Z " fill="#E3E9ED" transform="translate(215,135)"/>
<path d="M0 0 C1.65 0 3.3 0 5 0 C5 1.65 5 3.3 5 5 C3.35 5 1.7 5 0 5 C0 3.35 0 1.7 0 0 Z " fill="#376094" transform="translate(280,350)"/>
<path d="M0 0 C1.65 0 3.3 0 5 0 C5 1.65 5 3.3 5 5 C3.35 5 1.7 5 0 5 C0 3.35 0 1.7 0 0 Z " fill="#477AB0" transform="translate(275,345)"/>
<path d="M0 0 C1.65 0 3.3 0 5 0 C5 1.65 5 3.3 5 5 C3.35 5 1.7 5 0 5 C0 3.35 0 1.7 0 0 Z " fill="#85AFDA" transform="translate(280,340)"/>
<path d="M0 0 C1.65 0 3.3 0 5 0 C5 1.65 5 3.3 5 5 C3.35 5 1.7 5 0 5 C0 3.35 0 1.7 0 0 Z " fill="#487AAF" transform="translate(270,340)"/>
<path d="M0 0 C1.65 0 3.3 0 5 0 C5 1.65 5 3.3 5 5 C3.35 5 1.7 5 0 5 C0 3.35 0 1.7 0 0 Z " fill="#7AA2C9" transform="translate(270,335)"/>
<path d="M0 0 C1.65 0 3.3 0 5 0 C5 1.65 5 3.3 5 5 C3.35 5 1.7 5 0 5 C0 3.35 0 1.7 0 0 Z " fill="#3D679A" transform="translate(265,335)"/>
<path d="M0 0 C1.65 0 3.3 0 5 0 C5 1.65 5 3.3 5 5 C3.35 5 1.7 5 0 5 C0 3.35 0 1.7 0 0 Z " fill="#4A79AC" transform="translate(260,330)"/>
<path d="M0 0 C1.65 0 3.3 0 5 0 C5 1.65 5 3.3 5 5 C3.35 5 1.7 5 0 5 C0 3.35 0 1.7 0 0 Z " fill="#5281B5" transform="translate(285,325)"/>
<path d="M0 0 C1.65 0 3.3 0 5 0 C5 1.65 5 3.3 5 5 C3.35 5 1.7 5 0 5 C0 3.35 0 1.7 0 0 Z " fill="#8EB7E0" transform="translate(270,325)"/>
<path d="M0 0 C1.65 0 3.3 0 5 0 C5 1.65 5 3.3 5 5 C3.35 5 1.7 5 0 5 C0 3.35 0 1.7 0 0 Z " fill="#304E7C" transform="translate(255,325)"/>
<path d="M0 0 C1.65 0 3.3 0 5 0 C5 1.65 5 3.3 5 5 C3.35 5 1.7 5 0 5 C0 3.35 0 1.7 0 0 Z " fill="#628DBE" transform="translate(285,320)"/>
<path d="M0 0 C1.65 0 3.3 0 5 0 C5 1.65 5 3.3 5 5 C3.35 5 1.7 5 0 5 C0 3.35 0 1.7 0 0 Z " fill="#93BEE7" transform="translate(270,320)"/>
<path d="M0 0 C1.65 0 3.3 0 5 0 C5 1.65 5 3.3 5 5 C3.35 5 1.7 5 0 5 C0 3.35 0 1.7 0 0 Z " fill="#56759E" transform="translate(255,320)"/>
<path d="M0 0 C1.65 0 3.3 0 5 0 C5 1.65 5 3.3 5 5 C3.35 5 1.7 5 0 5 C0 3.35 0 1.7 0 0 Z " fill="#1B315C" transform="translate(250,320)"/>
<path d="M0 0 C1.65 0 3.3 0 5 0 C5 1.65 5 3.3 5 5 C3.35 5 1.7 5 0 5 C0 3.35 0 1.7 0 0 Z " fill="#1C325D" transform="translate(290,315)"/>
<path d="M0 0 C1.65 0 3.3 0 5 0 C5 1.65 5 3.3 5 5 C3.35 5 1.7 5 0 5 C0 3.35 0 1.7 0 0 Z " fill="#7797BB" transform="translate(255,315)"/>
<path d="M0 0 C1.65 0 3.3 0 5 0 C5 1.65 5 3.3 5 5 C3.35 5 1.7 5 0 5 C0 3.35 0 1.7 0 0 Z " fill="#48648E" transform="translate(250,315)"/>
<path d="M0 0 C1.65 0 3.3 0 5 0 C5 1.65 5 3.3 5 5 C3.35 5 1.7 5 0 5 C0 3.35 0 1.7 0 0 Z " fill="#1F3560" transform="translate(245,315)"/>
<path d="M0 0 C1.65 0 3.3 0 5 0 C5 1.65 5 3.3 5 5 C3.35 5 1.7 5 0 5 C0 3.35 0 1.7 0 0 Z " fill="#203966" transform="translate(295,310)"/>
<path d="M0 0 C1.65 0 3.3 0 5 0 C5 1.65 5 3.3 5 5 C3.35 5 1.7 5 0 5 C0 3.35 0 1.7 0 0 Z " fill="#4A73A3" transform="translate(290,310)"/>
<path d="M0 0 C1.65 0 3.3 0 5 0 C5 1.65 5 3.3 5 5 C3.35 5 1.7 5 0 5 C0 3.35 0 1.7 0 0 Z " fill="#7199C2" transform="translate(285,310)"/>
<path d="M0 0 C1.65 0 3.3 0 5 0 C5 1.65 5 3.3 5 5 C3.35 5 1.7 5 0 5 C0 3.35 0 1.7 0 0 Z " fill="#6E8DB0" transform="translate(245,310)"/>
<path d="M0 0 C1.65 0 3.3 0 5 0 C5 1.65 5 3.3 5 5 C3.35 5 1.7 5 0 5 C0 3.35 0 1.7 0 0 Z " fill="#345280" transform="translate(225,310)"/>
<path d="M0 0 C1.65 0 3.3 0 5 0 C5 1.65 5 3.3 5 5 C3.35 5 1.7 5 0 5 C0 3.35 0 1.7 0 0 Z " fill="#4974A4" transform="translate(305,305)"/>
<path d="M0 0 C1.65 0 3.3 0 5 0 C5 1.65 5 3.3 5 5 C3.35 5 1.7 5 0 5 C0 3.35 0 1.7 0 0 Z " fill="#6A91B7" transform="translate(295,305)"/>
<path d="M0 0 C1.65 0 3.3 0 5 0 C5 1.65 5 3.3 5 5 C3.35 5 1.7 5 0 5 C0 3.35 0 1.7 0 0 Z " fill="#83A4C6" transform="translate(255,305)"/>
<path d="M0 0 C1.65 0 3.3 0 5 0 C5 1.65 5 3.3 5 5 C3.35 5 1.7 5 0 5 C0 3.35 0 1.7 0 0 Z " fill="#688BAF" transform="translate(220,305)"/>
<path d="M0 0 C1.65 0 3.3 0 5 0 C5 1.65 5 3.3 5 5 C3.35 5 1.7 5 0 5 C0 3.35 0 1.7 0 0 Z " fill="#466A98" transform="translate(210,305)"/>
<path d="M0 0 C1.65 0 3.3 0 5 0 C5 1.65 5 3.3 5 5 C3.35 5 1.7 5 0 5 C0 3.35 0 1.7 0 0 Z " fill="#618BB4" transform="translate(310,300)"/>
<path d="M0 0 C1.65 0 3.3 0 5 0 C5 1.65 5 3.3 5 5 C3.35 5 1.7 5 0 5 C0 3.35 0 1.7 0 0 Z " fill="#87A8C9" transform="translate(290,300)"/>
<path d="M0 0 C1.65 0 3.3 0 5 0 C5 1.65 5 3.3 5 5 C3.35 5 1.7 5 0 5 C0 3.35 0 1.7 0 0 Z " fill="#90B2D5" transform="translate(285,300)"/>
<path d="M0 0 C1.65 0 3.3 0 5 0 C5 1.65 5 3.3 5 5 C3.35 5 1.7 5 0 5 C0 3.35 0 1.7 0 0 Z " fill="#98BDE2" transform="translate(280,300)"/>
<path d="M0 0 C1.65 0 3.3 0 5 0 C5 1.65 5 3.3 5 5 C3.35 5 1.7 5 0 5 C0 3.35 0 1.7 0 0 Z " fill="#A3CAF0" transform="translate(275,300)"/>
<path d="M0 0 C1.65 0 3.3 0 5 0 C5 1.65 5 3.3 5 5 C3.35 5 1.7 5 0 5 C0 3.35 0 1.7 0 0 Z " fill="#A2C7EE" transform="translate(265,300)"/>
<path d="M0 0 C1.65 0 3.3 0 5 0 C5 1.65 5 3.3 5 5 C3.35 5 1.7 5 0 5 C0 3.35 0 1.7 0 0 Z " fill="#99BBDF" transform="translate(260,300)"/>
<path d="M0 0 C1.65 0 3.3 0 5 0 C5 1.65 5 3.3 5 5 C3.35 5 1.7 5 0 5 C0 3.35 0 1.7 0 0 Z " fill="#8CACCE" transform="translate(250,300)"/>
<path d="M0 0 C1.65 0 3.3 0 5 0 C5 1.65 5 3.3 5 5 C3.35 5 1.7 5 0 5 C0 3.35 0 1.7 0 0 Z " fill="#5A82AC" transform="translate(200,300)"/>
<path d="M0 0 C1.65 0 3.3 0 5 0 C5 1.65 5 3.3 5 5 C3.35 5 1.7 5 0 5 C0 3.35 0 1.7 0 0 Z " fill="#4B74A3" transform="translate(325,295)"/>
<path d="M0 0 C1.65 0 3.3 0 5 0 C5 1.65 5 3.3 5 5 C3.35 5 1.7 5 0 5 C0 3.35 0 1.7 0 0 Z " fill="#638BB4" transform="translate(320,295)"/>
<path d="M0 0 C1.65 0 3.3 0 5 0 C5 1.65 5 3.3 5 5 C3.35 5 1.7 5 0 5 C0 3.35 0 1.7 0 0 Z " fill="#87A8C9" transform="translate(300,295)"/>
<path d="M0 0 C1.65 0 3.3 0 5 0 C5 1.65 5 3.3 5 5 C3.35 5 1.7 5 0 5 C0 3.35 0 1.7 0 0 Z " fill="#93B5D8" transform="translate(290,295)"/>
<path d="M0 0 C1.65 0 3.3 0 5 0 C5 1.65 5 3.3 5 5 C3.35 5 1.7 5 0 5 C0 3.35 0 1.7 0 0 Z " fill="#A2C8EE" transform="translate(280,295)"/>
<path d="M0 0 C1.65 0 3.3 0 5 0 C5 1.65 5 3.3 5 5 C3.35 5 1.7 5 0 5 C0 3.35 0 1.7 0 0 Z " fill="#A9CDF4" transform="translate(260,295)"/>
<path d="M0 0 C1.65 0 3.3 0 5 0 C5 1.65 5 3.3 5 5 C3.35 5 1.7 5 0 5 C0 3.35 0 1.7 0 0 Z " fill="#5A81AB" transform="translate(190,295)"/>
<path d="M0 0 C1.65 0 3.3 0 5 0 C5 1.65 5 3.3 5 5 C3.35 5 1.7 5 0 5 C0 3.35 0 1.7 0 0 Z " fill="#1D3460" transform="translate(335,290)"/>
<path d="M0 0 C1.65 0 3.3 0 5 0 C5 1.65 5 3.3 5 5 C3.35 5 1.7 5 0 5 C0 3.35 0 1.7 0 0 Z " fill="#5A85B3" transform="translate(330,290)"/>
<path d="M0 0 C1.65 0 3.3 0 5 0 C5 1.65 5 3.3 5 5 C3.35 5 1.7 5 0 5 C0 3.35 0 1.7 0 0 Z " fill="#7599BB" transform="translate(325,290)"/>
<path d="M0 0 C1.65 0 3.3 0 5 0 C5 1.65 5 3.3 5 5 C3.35 5 1.7 5 0 5 C0 3.35 0 1.7 0 0 Z " fill="#8BABCC" transform="translate(310,290)"/>
<path d="M0 0 C1.65 0 3.3 0 5 0 C5 1.65 5 3.3 5 5 C3.35 5 1.7 5 0 5 C0 3.35 0 1.7 0 0 Z " fill="#97B8DB" transform="translate(300,290)"/>
<path d="M0 0 C1.65 0 3.3 0 5 0 C5 1.65 5 3.3 5 5 C3.35 5 1.7 5 0 5 C0 3.35 0 1.7 0 0 Z " fill="#A9CFF4" transform="translate(285,290)"/>
<path d="M0 0 C1.65 0 3.3 0 5 0 C5 1.65 5 3.3 5 5 C3.35 5 1.7 5 0 5 C0 3.35 0 1.7 0 0 Z " fill="#92ACC8" transform="translate(205,290)"/>
<path d="M0 0 C1.65 0 3.3 0 5 0 C5 1.65 5 3.3 5 5 C3.35 5 1.7 5 0 5 C0 3.35 0 1.7 0 0 Z " fill="#688CB2" transform="translate(185,290)"/>
<path d="M0 0 C1.65 0 3.3 0 5 0 C5 1.65 5 3.3 5 5 C3.35 5 1.7 5 0 5 C0 3.35 0 1.7 0 0 Z " fill="#27406C" transform="translate(180,290)"/>
<path d="M0 0 C1.65 0 3.3 0 5 0 C5 1.65 5 3.3 5 5 C3.35 5 1.7 5 0 5 C0 3.35 0 1.7 0 0 Z " fill="#355584" transform="translate(340,285)"/>
<path d="M0 0 C1.65 0 3.3 0 5 0 C5 1.65 5 3.3 5 5 C3.35 5 1.7 5 0 5 C0 3.35 0 1.7 0 0 Z " fill="#648DB8" transform="translate(335,285)"/>
<path d="M0 0 C1.65 0 3.3 0 5 0 C5 1.65 5 3.3 5 5 C3.35 5 1.7 5 0 5 C0 3.35 0 1.7 0 0 Z " fill="#8CACCC" transform="translate(320,285)"/>
<path d="M0 0 C1.65 0 3.3 0 5 0 C5 1.65 5 3.3 5 5 C3.35 5 1.7 5 0 5 C0 3.35 0 1.7 0 0 Z " fill="#99BBDD" transform="translate(310,285)"/>
<path d="M0 0 C1.65 0 3.3 0 5 0 C5 1.65 5 3.3 5 5 C3.35 5 1.7 5 0 5 C0 3.35 0 1.7 0 0 Z " fill="#A5C9ED" transform="translate(300,285)"/>
<path d="M0 0 C1.65 0 3.3 0 5 0 C5 1.65 5 3.3 5 5 C3.35 5 1.7 5 0 5 C0 3.35 0 1.7 0 0 Z " fill="#A6C3E2" transform="translate(210,285)"/>
<path d="M0 0 C1.65 0 3.3 0 5 0 C5 1.65 5 3.3 5 5 C3.35 5 1.7 5 0 5 C0 3.35 0 1.7 0 0 Z " fill="#9AB5D0" transform="translate(200,285)"/>
<path d="M0 0 C1.65 0 3.3 0 5 0 C5 1.65 5 3.3 5 5 C3.35 5 1.7 5 0 5 C0 3.35 0 1.7 0 0 Z " fill="#93ADC7" transform="translate(195,285)"/>
<path d="M0 0 C1.65 0 3.3 0 5 0 C5 1.65 5 3.3 5 5 C3.35 5 1.7 5 0 5 C0 3.35 0 1.7 0 0 Z " fill="#5174A1" transform="translate(175,285)"/>
<path d="M0 0 C1.65 0 3.3 0 5 0 C5 1.65 5 3.3 5 5 C3.35 5 1.7 5 0 5 C0 3.35 0 1.7 0 0 Z " fill="#395B89" transform="translate(345,280)"/>
<path d="M0 0 C1.65 0 3.3 0 5 0 C5 1.65 5 3.3 5 5 C3.35 5 1.7 5 0 5 C0 3.35 0 1.7 0 0 Z " fill="#6A92BA" transform="translate(340,280)"/>
<path d="M0 0 C1.65 0 3.3 0 5 0 C5 1.65 5 3.3 5 5 C3.35 5 1.7 5 0 5 C0 3.35 0 1.7 0 0 Z " fill="#99BADB" transform="translate(320,280)"/>
<path d="M0 0 C1.65 0 3.3 0 5 0 C5 1.65 5 3.3 5 5 C3.35 5 1.7 5 0 5 C0 3.35 0 1.7 0 0 Z " fill="#A8CCEE" transform="translate(310,280)"/>
<path d="M0 0 C1.65 0 3.3 0 5 0 C5 1.65 5 3.3 5 5 C3.35 5 1.7 5 0 5 C0 3.35 0 1.7 0 0 Z " fill="#043393" transform="translate(285,280)"/>
<path d="M0 0 C1.65 0 3.3 0 5 0 C5 1.65 5 3.3 5 5 C3.35 5 1.7 5 0 5 C0 3.35 0 1.7 0 0 Z " fill="#4F81E5" transform="translate(275,280)"/>
<path d="M0 0 C1.65 0 3.3 0 5 0 C5 1.65 5 3.3 5 5 C3.35 5 1.7 5 0 5 C0 3.35 0 1.7 0 0 Z " fill="#2759BD" transform="translate(270,280)"/>
<path d="M0 0 C1.65 0 3.3 0 5 0 C5 1.65 5 3.3 5 5 C3.35 5 1.7 5 0 5 C0 3.35 0 1.7 0 0 Z " fill="#295BBE" transform="translate(245,280)"/>
<path d="M0 0 C1.65 0 3.3 0 5 0 C5 1.65 5 3.3 5 5 C3.35 5 1.7 5 0 5 C0 3.35 0 1.7 0 0 Z " fill="#002A7F" transform="translate(235,280)"/>
<path d="M0 0 C1.65 0 3.3 0 5 0 C5 1.65 5 3.3 5 5 C3.35 5 1.7 5 0 5 C0 3.35 0 1.7 0 0 Z " fill="#99B2CB" transform="translate(190,280)"/>
<path d="M0 0 C1.65 0 3.3 0 5 0 C5 1.65 5 3.3 5 5 C3.35 5 1.7 5 0 5 C0 3.35 0 1.7 0 0 Z " fill="#7796B5" transform="translate(175,280)"/>
<path d="M0 0 C1.65 0 3.3 0 5 0 C5 1.65 5 3.3 5 5 C3.35 5 1.7 5 0 5 C0 3.35 0 1.7 0 0 Z " fill="#2C4875" transform="translate(350,275)"/>
<path d="M0 0 C1.65 0 3.3 0 5 0 C5 1.65 5 3.3 5 5 C3.35 5 1.7 5 0 5 C0 3.35 0 1.7 0 0 Z " fill="#6A91B9" transform="translate(345,275)"/>
<path d="M0 0 C1.65 0 3.3 0 5 0 C5 1.65 5 3.3 5 5 C3.35 5 1.7 5 0 5 C0 3.35 0 1.7 0 0 Z " fill="#94B3D2" transform="translate(330,275)"/>
<path d="M0 0 C1.65 0 3.3 0 5 0 C5 1.65 5 3.3 5 5 C3.35 5 1.7 5 0 5 C0 3.35 0 1.7 0 0 Z " fill="#9DBEDE" transform="translate(325,275)"/>
<path d="M0 0 C1.65 0 3.3 0 5 0 C5 1.65 5 3.3 5 5 C3.35 5 1.7 5 0 5 C0 3.35 0 1.7 0 0 Z " fill="#AFD3F7" transform="translate(315,275)"/>
<path d="M0 0 C1.65 0 3.3 0 5 0 C5 1.65 5 3.3 5 5 C3.35 5 1.7 5 0 5 C0 3.35 0 1.7 0 0 Z " fill="#A1C5ED" transform="translate(290,275)"/>
<path d="M0 0 C1.65 0 3.3 0 5 0 C5 1.65 5 3.3 5 5 C3.35 5 1.7 5 0 5 C0 3.35 0 1.7 0 0 Z " fill="#4F74AE" transform="translate(285,275)"/>
<path d="M0 0 C1.65 0 3.3 0 5 0 C5 1.65 5 3.3 5 5 C3.35 5 1.7 5 0 5 C0 3.35 0 1.7 0 0 Z " fill="#093283" transform="translate(280,275)"/>
<path d="M0 0 C1.65 0 3.3 0 5 0 C5 1.65 5 3.3 5 5 C3.35 5 1.7 5 0 5 C0 3.35 0 1.7 0 0 Z " fill="#5181E2" transform="translate(265,275)"/>
<path d="M0 0 C1.65 0 3.3 0 5 0 C5 1.65 5 3.3 5 5 C3.35 5 1.7 5 0 5 C0 3.35 0 1.7 0 0 Z " fill="#01308E" transform="translate(245,275)"/>
<path d="M0 0 C1.65 0 3.3 0 5 0 C5 1.65 5 3.3 5 5 C3.35 5 1.7 5 0 5 C0 3.35 0 1.7 0 0 Z " fill="#5E7EAE" transform="translate(235,275)"/>
<path d="M0 0 C1.65 0 3.3 0 5 0 C5 1.65 5 3.3 5 5 C3.35 5 1.7 5 0 5 C0 3.35 0 1.7 0 0 Z " fill="#AFCAE5" transform="translate(195,275)"/>
<path d="M0 0 C1.65 0 3.3 0 5 0 C5 1.65 5 3.3 5 5 C3.35 5 1.7 5 0 5 C0 3.35 0 1.7 0 0 Z " fill="#A6C0DA" transform="translate(190,275)"/>
<path d="M0 0 C1.65 0 3.3 0 5 0 C5 1.65 5 3.3 5 5 C3.35 5 1.7 5 0 5 C0 3.35 0 1.7 0 0 Z " fill="#9DB4CC" transform="translate(185,275)"/>
<path d="M0 0 C1.65 0 3.3 0 5 0 C5 1.65 5 3.3 5 5 C3.35 5 1.7 5 0 5 C0 3.35 0 1.7 0 0 Z " fill="#93AAC0" transform="translate(180,275)"/>
<path d="M0 0 C1.65 0 3.3 0 5 0 C5 1.65 5 3.3 5 5 C3.35 5 1.7 5 0 5 C0 3.35 0 1.7 0 0 Z " fill="#5274A0" transform="translate(165,275)"/>
<path d="M0 0 C1.65 0 3.3 0 5 0 C5 1.65 5 3.3 5 5 C3.35 5 1.7 5 0 5 C0 3.35 0 1.7 0 0 Z " fill="#6790B9" transform="translate(350,270)"/>
<path d="M0 0 C1.65 0 3.3 0 5 0 C5 1.65 5 3.3 5 5 C3.35 5 1.7 5 0 5 C0 3.35 0 1.7 0 0 Z " fill="#96B4D2" transform="translate(335,270)"/>
<path d="M0 0 C1.65 0 3.3 0 5 0 C5 1.65 5 3.3 5 5 C3.35 5 1.7 5 0 5 C0 3.35 0 1.7 0 0 Z " fill="#A8C9EA" transform="translate(325,270)"/>
<path d="M0 0 C1.65 0 3.3 0 5 0 C5 1.65 5 3.3 5 5 C3.35 5 1.7 5 0 5 C0 3.35 0 1.7 0 0 Z " fill="#B0D2F6" transform="translate(280,270)"/>
<path d="M0 0 C1.65 0 3.3 0 5 0 C5 1.65 5 3.3 5 5 C3.35 5 1.7 5 0 5 C0 3.35 0 1.7 0 0 Z " fill="#153D89" transform="translate(275,270)"/>
<path d="M0 0 C1.65 0 3.3 0 5 0 C5 1.65 5 3.3 5 5 C3.35 5 1.7 5 0 5 C0 3.35 0 1.7 0 0 Z " fill="#3A5C99" transform="translate(245,270)"/>
<path d="M0 0 C1.65 0 3.3 0 5 0 C5 1.65 5 3.3 5 5 C3.35 5 1.7 5 0 5 C0 3.35 0 1.7 0 0 Z " fill="#9FB6CC" transform="translate(180,270)"/>
<path d="M0 0 C1.65 0 3.3 0 5 0 C5 1.65 5 3.3 5 5 C3.35 5 1.7 5 0 5 C0 3.35 0 1.7 0 0 Z " fill="#7A99B9" transform="translate(165,270)"/>
<path d="M0 0 C1.65 0 3.3 0 5 0 C5 1.65 5 3.3 5 5 C3.35 5 1.7 5 0 5 C0 3.35 0 1.7 0 0 Z " fill="#5D86B2" transform="translate(355,265)"/>
<path d="M0 0 C1.65 0 3.3 0 5 0 C5 1.65 5 3.3 5 5 C3.35 5 1.7 5 0 5 C0 3.35 0 1.7 0 0 Z " fill="#A2C0DF" transform="translate(335,265)"/>
<path d="M0 0 C1.65 0 3.3 0 5 0 C5 1.65 5 3.3 5 5 C3.35 5 1.7 5 0 5 C0 3.35 0 1.7 0 0 Z " fill="#AACAEA" transform="translate(330,265)"/>
<path d="M0 0 C1.65 0 3.3 0 5 0 C5 1.65 5 3.3 5 5 C3.35 5 1.7 5 0 5 C0 3.35 0 1.7 0 0 Z " fill="#466BAA" transform="translate(275,265)"/>
<path d="M0 0 C1.65 0 3.3 0 5 0 C5 1.65 5 3.3 5 5 C3.35 5 1.7 5 0 5 C0 3.35 0 1.7 0 0 Z " fill="#C3DEF9" transform="translate(190,265)"/>
<path d="M0 0 C1.65 0 3.3 0 5 0 C5 1.65 5 3.3 5 5 C3.35 5 1.7 5 0 5 C0 3.35 0 1.7 0 0 Z " fill="#B5CEE7" transform="translate(185,265)"/>
<path d="M0 0 C1.65 0 3.3 0 5 0 C5 1.65 5 3.3 5 5 C3.35 5 1.7 5 0 5 C0 3.35 0 1.7 0 0 Z " fill="#ACC3DA" transform="translate(180,265)"/>
<path d="M0 0 C1.65 0 3.3 0 5 0 C5 1.65 5 3.3 5 5 C3.35 5 1.7 5 0 5 C0 3.35 0 1.7 0 0 Z " fill="#304C79" transform="translate(360,260)"/>
<path d="M0 0 C1.65 0 3.3 0 5 0 C5 1.65 5 3.3 5 5 C3.35 5 1.7 5 0 5 C0 3.35 0 1.7 0 0 Z " fill="#7C9FC3" transform="translate(355,260)"/>
<path d="M0 0 C1.65 0 3.3 0 5 0 C5 1.65 5 3.3 5 5 C3.35 5 1.7 5 0 5 C0 3.35 0 1.7 0 0 Z " fill="#93AFCB" transform="translate(350,260)"/>
<path d="M0 0 C1.65 0 3.3 0 5 0 C5 1.65 5 3.3 5 5 C3.35 5 1.7 5 0 5 C0 3.35 0 1.7 0 0 Z " fill="#A4C1DF" transform="translate(340,260)"/>
<path d="M0 0 C1.65 0 3.3 0 5 0 C5 1.65 5 3.3 5 5 C3.35 5 1.7 5 0 5 C0 3.35 0 1.7 0 0 Z " fill="#B7D8FA" transform="translate(330,260)"/>
<path d="M0 0 C1.65 0 3.3 0 5 0 C5 1.65 5 3.3 5 5 C3.35 5 1.7 5 0 5 C0 3.35 0 1.7 0 0 Z " fill="#C6DFF8" transform="translate(185,260)"/>
<path d="M0 0 C1.65 0 3.3 0 5 0 C5 1.65 5 3.3 5 5 C3.35 5 1.7 5 0 5 C0 3.35 0 1.7 0 0 Z " fill="#AEC4DA" transform="translate(175,260)"/>
<path d="M0 0 C1.65 0 3.3 0 5 0 C5 1.65 5 3.3 5 5 C3.35 5 1.7 5 0 5 C0 3.35 0 1.7 0 0 Z " fill="#A3B7CC" transform="translate(170,260)"/>
<path d="M0 0 C1.65 0 3.3 0 5 0 C5 1.65 5 3.3 5 5 C3.35 5 1.7 5 0 5 C0 3.35 0 1.7 0 0 Z " fill="#9CAFC2" transform="translate(165,260)"/>
<path d="M0 0 C1.65 0 3.3 0 5 0 C5 1.65 5 3.3 5 5 C3.35 5 1.7 5 0 5 C0 3.35 0 1.7 0 0 Z " fill="#6D90BB" transform="translate(155,260)"/>
<path d="M0 0 C1.65 0 3.3 0 5 0 C5 1.65 5 3.3 5 5 C3.35 5 1.7 5 0 5 C0 3.35 0 1.7 0 0 Z " fill="#6991BA" transform="translate(360,255)"/>
<path d="M0 0 C1.65 0 3.3 0 5 0 C5 1.65 5 3.3 5 5 C3.35 5 1.7 5 0 5 C0 3.35 0 1.7 0 0 Z " fill="#A4C1DD" transform="translate(345,255)"/>
<path d="M0 0 C1.65 0 3.3 0 5 0 C5 1.65 5 3.3 5 5 C3.35 5 1.7 5 0 5 C0 3.35 0 1.7 0 0 Z " fill="#C7DFF7" transform="translate(180,255)"/>
<path d="M0 0 C1.65 0 3.3 0 5 0 C5 1.65 5 3.3 5 5 C3.35 5 1.7 5 0 5 C0 3.35 0 1.7 0 0 Z " fill="#83A4C6" transform="translate(360,250)"/>
<path d="M0 0 C1.65 0 3.3 0 5 0 C5 1.65 5 3.3 5 5 C3.35 5 1.7 5 0 5 C0 3.35 0 1.7 0 0 Z " fill="#A2BDD8" transform="translate(350,250)"/>
<path d="M0 0 C1.65 0 3.3 0 5 0 C5 1.65 5 3.3 5 5 C3.35 5 1.7 5 0 5 C0 3.35 0 1.7 0 0 Z " fill="#B7D4F3" transform="translate(340,250)"/>
<path d="M0 0 C1.65 0 3.3 0 5 0 C5 1.65 5 3.3 5 5 C3.35 5 1.7 5 0 5 C0 3.35 0 1.7 0 0 Z " fill="#C4DAF0" transform="translate(175,250)"/>
<path d="M0 0 C1.65 0 3.3 0 5 0 C5 1.65 5 3.3 5 5 C3.35 5 1.7 5 0 5 C0 3.35 0 1.7 0 0 Z " fill="#B8CCE0" transform="translate(170,250)"/>
<path d="M0 0 C1.65 0 3.3 0 5 0 C5 1.65 5 3.3 5 5 C3.35 5 1.7 5 0 5 C0 3.35 0 1.7 0 0 Z " fill="#ACBED1" transform="translate(165,250)"/>
<path d="M0 0 C1.65 0 3.3 0 5 0 C5 1.65 5 3.3 5 5 C3.35 5 1.7 5 0 5 C0 3.35 0 1.7 0 0 Z " fill="#92A9C0" transform="translate(155,250)"/>
<path d="M0 0 C1.65 0 3.3 0 5 0 C5 1.65 5 3.3 5 5 C3.35 5 1.7 5 0 5 C0 3.35 0 1.7 0 0 Z " fill="#415D87" transform="translate(150,250)"/>
<path d="M0 0 C1.65 0 3.3 0 5 0 C5 1.65 5 3.3 5 5 C3.35 5 1.7 5 0 5 C0 3.35 0 1.7 0 0 Z " fill="#5E81AC" transform="translate(365,245)"/>
<path d="M0 0 C1.65 0 3.3 0 5 0 C5 1.65 5 3.3 5 5 C3.35 5 1.7 5 0 5 C0 3.35 0 1.7 0 0 Z " fill="#A0BAD4" transform="translate(355,245)"/>
<path d="M0 0 C1.65 0 3.3 0 5 0 C5 1.65 5 3.3 5 5 C3.35 5 1.7 5 0 5 C0 3.35 0 1.7 0 0 Z " fill="#B2CFEC" transform="translate(345,245)"/>
<path d="M0 0 C1.65 0 3.3 0 5 0 C5 1.65 5 3.3 5 5 C3.35 5 1.7 5 0 5 C0 3.35 0 1.7 0 0 Z " fill="#7CA0C5" transform="translate(365,240)"/>
<path d="M0 0 C1.65 0 3.3 0 5 0 C5 1.65 5 3.3 5 5 C3.35 5 1.7 5 0 5 C0 3.35 0 1.7 0 0 Z " fill="#B1CCE7" transform="translate(350,240)"/>
<path d="M0 0 C1.65 0 3.3 0 5 0 C5 1.65 5 3.3 5 5 C3.35 5 1.7 5 0 5 C0 3.35 0 1.7 0 0 Z " fill="#C9DDF0" transform="translate(170,240)"/>
<path d="M0 0 C1.65 0 3.3 0 5 0 C5 1.65 5 3.3 5 5 C3.35 5 1.7 5 0 5 C0 3.35 0 1.7 0 0 Z " fill="#BDCFE1" transform="translate(165,240)"/>
<path d="M0 0 C1.65 0 3.3 0 5 0 C5 1.65 5 3.3 5 5 C3.35 5 1.7 5 0 5 C0 3.35 0 1.7 0 0 Z " fill="#B1C2D2" transform="translate(160,240)"/>
<path d="M0 0 C1.65 0 3.3 0 5 0 C5 1.65 5 3.3 5 5 C3.35 5 1.7 5 0 5 C0 3.35 0 1.7 0 0 Z " fill="#C4DFFB" transform="translate(345,235)"/>
<path d="M0 0 C1.65 0 3.3 0 5 0 C5 1.65 5 3.3 5 5 C3.35 5 1.7 5 0 5 C0 3.35 0 1.7 0 0 Z " fill="#D3E5F8" transform="translate(170,235)"/>
<path d="M0 0 C1.65 0 3.3 0 5 0 C5 1.65 5 3.3 5 5 C3.35 5 1.7 5 0 5 C0 3.35 0 1.7 0 0 Z " fill="#9CB9D5" transform="translate(365,230)"/>
<path d="M0 0 C1.65 0 3.3 0 5 0 C5 1.65 5 3.3 5 5 C3.35 5 1.7 5 0 5 C0 3.35 0 1.7 0 0 Z " fill="#ABBBCC" transform="translate(150,230)"/>
<path d="M0 0 C1.65 0 3.3 0 5 0 C5 1.65 5 3.3 5 5 C3.35 5 1.7 5 0 5 C0 3.35 0 1.7 0 0 Z " fill="#193F8C" transform="translate(245,210)"/>
<path d="M0 0 C1.65 0 3.3 0 5 0 C5 1.65 5 3.3 5 5 C3.35 5 1.7 5 0 5 C0 3.35 0 1.7 0 0 Z " fill="#D0E2F7" transform="translate(240,210)"/>
<path d="M0 0 C1.65 0 3.3 0 5 0 C5 1.65 5 3.3 5 5 C3.35 5 1.7 5 0 5 C0 3.35 0 1.7 0 0 Z " fill="#A3BCD6" transform="translate(365,205)"/>
<path d="M0 0 C1.65 0 3.3 0 5 0 C5 1.65 5 3.3 5 5 C3.35 5 1.7 5 0 5 C0 3.35 0 1.7 0 0 Z " fill="#00297D" transform="translate(270,205)"/>
<path d="M0 0 C1.65 0 3.3 0 5 0 C5 1.65 5 3.3 5 5 C3.35 5 1.7 5 0 5 C0 3.35 0 1.7 0 0 Z " fill="#1A4393" transform="translate(240,205)"/>
<path d="M0 0 C1.65 0 3.3 0 5 0 C5 1.65 5 3.3 5 5 C3.35 5 1.7 5 0 5 C0 3.35 0 1.7 0 0 Z " fill="#6F8CC0" transform="translate(235,205)"/>
<path d="M0 0 C1.65 0 3.3 0 5 0 C5 1.65 5 3.3 5 5 C3.35 5 1.7 5 0 5 C0 3.35 0 1.7 0 0 Z " fill="#7188B1" transform="translate(230,200)"/>
<path d="M0 0 C1.65 0 3.3 0 5 0 C5 1.65 5 3.3 5 5 C3.35 5 1.7 5 0 5 C0 3.35 0 1.7 0 0 Z " fill="#7B98BB" transform="translate(365,195)"/>
<path d="M0 0 C1.65 0 3.3 0 5 0 C5 1.65 5 3.3 5 5 C3.35 5 1.7 5 0 5 C0 3.35 0 1.7 0 0 Z " fill="#E3F4FF" transform="translate(335,195)"/>
<path d="M0 0 C1.65 0 3.3 0 5 0 C5 1.65 5 3.3 5 5 C3.35 5 1.7 5 0 5 C0 3.35 0 1.7 0 0 Z " fill="#8DA0BF" transform="translate(275,195)"/>
<path d="M0 0 C1.65 0 3.3 0 5 0 C5 1.65 5 3.3 5 5 C3.35 5 1.7 5 0 5 C0 3.35 0 1.7 0 0 Z " fill="#546B93" transform="translate(260,195)"/>
<path d="M0 0 C1.65 0 3.3 0 5 0 C5 1.65 5 3.3 5 5 C3.35 5 1.7 5 0 5 C0 3.35 0 1.7 0 0 Z " fill="#8FA0B9" transform="translate(235,195)"/>
<path d="M0 0 C1.65 0 3.3 0 5 0 C5 1.65 5 3.3 5 5 C3.35 5 1.7 5 0 5 C0 3.35 0 1.7 0 0 Z " fill="#CAD8E9" transform="translate(230,195)"/>
<path d="M0 0 C1.65 0 3.3 0 5 0 C5 1.65 5 3.3 5 5 C3.35 5 1.7 5 0 5 C0 3.35 0 1.7 0 0 Z " fill="#1B315C" transform="translate(365,190)"/>
<path d="M0 0 C1.65 0 3.3 0 5 0 C5 1.65 5 3.3 5 5 C3.35 5 1.7 5 0 5 C0 3.35 0 1.7 0 0 Z " fill="#A1BFDF" transform="translate(150,190)"/>
<path d="M0 0 C1.65 0 3.3 0 5 0 C5 1.65 5 3.3 5 5 C3.35 5 1.7 5 0 5 C0 3.35 0 1.7 0 0 Z " fill="#9CB7D3" transform="translate(360,185)"/>
<path d="M0 0 C1.65 0 3.3 0 5 0 C5 1.65 5 3.3 5 5 C3.35 5 1.7 5 0 5 C0 3.35 0 1.7 0 0 Z " fill="#DFEEFC" transform="translate(340,185)"/>
<path d="M0 0 C1.65 0 3.3 0 5 0 C5 1.65 5 3.3 5 5 C3.35 5 1.7 5 0 5 C0 3.35 0 1.7 0 0 Z " fill="#48628A" transform="translate(360,180)"/>
<path d="M0 0 C1.65 0 3.3 0 5 0 C5 1.65 5 3.3 5 5 C3.35 5 1.7 5 0 5 C0 3.35 0 1.7 0 0 Z " fill="#EFFCFF" transform="translate(335,180)"/>
<path d="M0 0 C1.65 0 3.3 0 5 0 C5 1.65 5 3.3 5 5 C3.35 5 1.7 5 0 5 C0 3.35 0 1.7 0 0 Z " fill="#F3FFFF" transform="translate(325,180)"/>
<path d="M0 0 C1.65 0 3.3 0 5 0 C5 1.65 5 3.3 5 5 C3.35 5 1.7 5 0 5 C0 3.35 0 1.7 0 0 Z " fill="#C2D7F7" transform="translate(260,180)"/>
<path d="M0 0 C1.65 0 3.3 0 5 0 C5 1.65 5 3.3 5 5 C3.35 5 1.7 5 0 5 C0 3.35 0 1.7 0 0 Z " fill="#D3E1F5" transform="translate(255,180)"/>
<path d="M0 0 C1.65 0 3.3 0 5 0 C5 1.65 5 3.3 5 5 C3.35 5 1.7 5 0 5 C0 3.35 0 1.7 0 0 Z " fill="#B5CFEA" transform="translate(155,180)"/>
<path d="M0 0 C1.65 0 3.3 0 5 0 C5 1.65 5 3.3 5 5 C3.35 5 1.7 5 0 5 C0 3.35 0 1.7 0 0 Z " fill="#9BB4D1" transform="translate(355,175)"/>
<path d="M0 0 C1.65 0 3.3 0 5 0 C5 1.65 5 3.3 5 5 C3.35 5 1.7 5 0 5 C0 3.35 0 1.7 0 0 Z " fill="#F6FFFF" transform="translate(320,175)"/>
<path d="M0 0 C1.65 0 3.3 0 5 0 C5 1.65 5 3.3 5 5 C3.35 5 1.7 5 0 5 C0 3.35 0 1.7 0 0 Z " fill="#849FD0" transform="translate(270,175)"/>
<path d="M0 0 C1.65 0 3.3 0 5 0 C5 1.65 5 3.3 5 5 C3.35 5 1.7 5 0 5 C0 3.35 0 1.7 0 0 Z " fill="#3F71D6" transform="translate(260,175)"/>
<path d="M0 0 C1.65 0 3.3 0 5 0 C5 1.65 5 3.3 5 5 C3.35 5 1.7 5 0 5 C0 3.35 0 1.7 0 0 Z " fill="#2A51A0" transform="translate(250,175)"/>
<path d="M0 0 C1.65 0 3.3 0 5 0 C5 1.65 5 3.3 5 5 C3.35 5 1.7 5 0 5 C0 3.35 0 1.7 0 0 Z " fill="#B4C4DF" transform="translate(245,175)"/>
<path d="M0 0 C1.65 0 3.3 0 5 0 C5 1.65 5 3.3 5 5 C3.35 5 1.7 5 0 5 C0 3.35 0 1.7 0 0 Z " fill="#B9CDE2" transform="translate(350,170)"/>
<path d="M0 0 C1.65 0 3.3 0 5 0 C5 1.65 5 3.3 5 5 C3.35 5 1.7 5 0 5 C0 3.35 0 1.7 0 0 Z " fill="#D1DEF1" transform="translate(275,170)"/>
<path d="M0 0 C1.65 0 3.3 0 5 0 C5 1.65 5 3.3 5 5 C3.35 5 1.7 5 0 5 C0 3.35 0 1.7 0 0 Z " fill="#87B7FF" transform="translate(260,170)"/>
<path d="M0 0 C1.65 0 3.3 0 5 0 C5 1.65 5 3.3 5 5 C3.35 5 1.7 5 0 5 C0 3.35 0 1.7 0 0 Z " fill="#3665C4" transform="translate(255,170)"/>
<path d="M0 0 C1.65 0 3.3 0 5 0 C5 1.65 5 3.3 5 5 C3.35 5 1.7 5 0 5 C0 3.35 0 1.7 0 0 Z " fill="#1B4088" transform="translate(245,170)"/>
<path d="M0 0 C1.65 0 3.3 0 5 0 C5 1.65 5 3.3 5 5 C3.35 5 1.7 5 0 5 C0 3.35 0 1.7 0 0 Z " fill="#536D93" transform="translate(350,165)"/>
<path d="M0 0 C1.65 0 3.3 0 5 0 C5 1.65 5 3.3 5 5 C3.35 5 1.7 5 0 5 C0 3.35 0 1.7 0 0 Z " fill="#C5D5E6" transform="translate(345,165)"/>
<path d="M0 0 C1.65 0 3.3 0 5 0 C5 1.65 5 3.3 5 5 C3.35 5 1.7 5 0 5 C0 3.35 0 1.7 0 0 Z " fill="#BAD3ED" transform="translate(165,165)"/>
<path d="M0 0 C1.65 0 3.3 0 5 0 C5 1.65 5 3.3 5 5 C3.35 5 1.7 5 0 5 C0 3.35 0 1.7 0 0 Z " fill="#7993B5" transform="translate(345,160)"/>
<path d="M0 0 C1.65 0 3.3 0 5 0 C5 1.65 5 3.3 5 5 C3.35 5 1.7 5 0 5 C0 3.35 0 1.7 0 0 Z " fill="#6981AE" transform="translate(275,160)"/>
<path d="M0 0 C1.65 0 3.3 0 5 0 C5 1.65 5 3.3 5 5 C3.35 5 1.7 5 0 5 C0 3.35 0 1.7 0 0 Z " fill="#C1D6ED" transform="translate(170,160)"/>
<path d="M0 0 C1.65 0 3.3 0 5 0 C5 1.65 5 3.3 5 5 C3.35 5 1.7 5 0 5 C0 3.35 0 1.7 0 0 Z " fill="#7A94B6" transform="translate(340,155)"/>
<path d="M0 0 C1.65 0 3.3 0 5 0 C5 1.65 5 3.3 5 5 C3.35 5 1.7 5 0 5 C0 3.35 0 1.7 0 0 Z " fill="#CCD9E8" transform="translate(335,155)"/>
<path d="M0 0 C1.65 0 3.3 0 5 0 C5 1.65 5 3.3 5 5 C3.35 5 1.7 5 0 5 C0 3.35 0 1.7 0 0 Z " fill="#F2F9FE" transform="translate(310,155)"/>
<path d="M0 0 C1.65 0 3.3 0 5 0 C5 1.65 5 3.3 5 5 C3.35 5 1.7 5 0 5 C0 3.35 0 1.7 0 0 Z " fill="#D8E0EB" transform="translate(275,155)"/>
<path d="M0 0 C1.65 0 3.3 0 5 0 C5 1.65 5 3.3 5 5 C3.35 5 1.7 5 0 5 C0 3.35 0 1.7 0 0 Z " fill="#001F5F" transform="translate(270,155)"/>
<path d="M0 0 C1.65 0 3.3 0 5 0 C5 1.65 5 3.3 5 5 C3.35 5 1.7 5 0 5 C0 3.35 0 1.7 0 0 Z " fill="#BFD6EC" transform="translate(175,155)"/>
<path d="M0 0 C1.65 0 3.3 0 5 0 C5 1.65 5 3.3 5 5 C3.35 5 1.7 5 0 5 C0 3.35 0 1.7 0 0 Z " fill="#405880" transform="translate(335,150)"/>
<path d="M0 0 C1.65 0 3.3 0 5 0 C5 1.65 5 3.3 5 5 C3.35 5 1.7 5 0 5 C0 3.35 0 1.7 0 0 Z " fill="#C6D5E4" transform="translate(330,150)"/>
<path d="M0 0 C1.65 0 3.3 0 5 0 C5 1.65 5 3.3 5 5 C3.35 5 1.7 5 0 5 C0 3.35 0 1.7 0 0 Z " fill="#9EA8BD" transform="translate(270,150)"/>
<path d="M0 0 C1.65 0 3.3 0 5 0 C5 1.65 5 3.3 5 5 C3.35 5 1.7 5 0 5 C0 3.35 0 1.7 0 0 Z " fill="#1D3566" transform="translate(265,150)"/>
<path d="M0 0 C1.65 0 3.3 0 5 0 C5 1.65 5 3.3 5 5 C3.35 5 1.7 5 0 5 C0 3.35 0 1.7 0 0 Z " fill="#4D5E7F" transform="translate(250,150)"/>
<path d="M0 0 C1.65 0 3.3 0 5 0 C5 1.65 5 3.3 5 5 C3.35 5 1.7 5 0 5 C0 3.35 0 1.7 0 0 Z " fill="#BFC5D1" transform="translate(245,150)"/>
<path d="M0 0 C1.65 0 3.3 0 5 0 C5 1.65 5 3.3 5 5 C3.35 5 1.7 5 0 5 C0 3.35 0 1.7 0 0 Z " fill="#B6CFEA" transform="translate(180,150)"/>
<path d="M0 0 C1.65 0 3.3 0 5 0 C5 1.65 5 3.3 5 5 C3.35 5 1.7 5 0 5 C0 3.35 0 1.7 0 0 Z " fill="#B6C9DF" transform="translate(325,145)"/>
<path d="M0 0 C1.65 0 3.3 0 5 0 C5 1.65 5 3.3 5 5 C3.35 5 1.7 5 0 5 C0 3.35 0 1.7 0 0 Z " fill="#DCE5ED" transform="translate(320,145)"/>
<path d="M0 0 C1.65 0 3.3 0 5 0 C5 1.65 5 3.3 5 5 C3.35 5 1.7 5 0 5 C0 3.35 0 1.7 0 0 Z " fill="#CFD3DB" transform="translate(260,145)"/>
<path d="M0 0 C1.65 0 3.3 0 5 0 C5 1.65 5 3.3 5 5 C3.35 5 1.7 5 0 5 C0 3.35 0 1.7 0 0 Z " fill="#DFE2E7" transform="translate(255,145)"/>
<path d="M0 0 C1.65 0 3.3 0 5 0 C5 1.65 5 3.3 5 5 C3.35 5 1.7 5 0 5 C0 3.35 0 1.7 0 0 Z " fill="#CCDCEB" transform="translate(190,145)"/>
<path d="M0 0 C1.65 0 3.3 0 5 0 C5 1.65 5 3.3 5 5 C3.35 5 1.7 5 0 5 C0 3.35 0 1.7 0 0 Z " fill="#283D67" transform="translate(320,140)"/>
<path d="M0 0 C1.65 0 3.3 0 5 0 C5 1.65 5 3.3 5 5 C3.35 5 1.7 5 0 5 C0 3.35 0 1.7 0 0 Z " fill="#C6D7E7" transform="translate(315,140)"/>
<path d="M0 0 C1.65 0 3.3 0 5 0 C5 1.65 5 3.3 5 5 C3.35 5 1.7 5 0 5 C0 3.35 0 1.7 0 0 Z " fill="#E2E9EF" transform="translate(310,140)"/>
<path d="M0 0 C1.65 0 3.3 0 5 0 C5 1.65 5 3.3 5 5 C3.35 5 1.7 5 0 5 C0 3.35 0 1.7 0 0 Z " fill="#9DB6D3" transform="translate(195,140)"/>
<path d="M0 0 C1.65 0 3.3 0 5 0 C5 1.65 5 3.3 5 5 C3.35 5 1.7 5 0 5 C0 3.35 0 1.7 0 0 Z " fill="#C5D6E7" transform="translate(305,135)"/>
<path d="M0 0 C1.65 0 3.3 0 5 0 C5 1.65 5 3.3 5 5 C3.35 5 1.7 5 0 5 C0 3.35 0 1.7 0 0 Z " fill="#DEE7EF" transform="translate(300,135)"/>
<path d="M0 0 C1.65 0 3.3 0 5 0 C5 1.65 5 3.3 5 5 C3.35 5 1.7 5 0 5 C0 3.35 0 1.7 0 0 Z " fill="#152A55" transform="translate(205,135)"/>
<path d="M0 0 C1.65 0 3.3 0 5 0 C5 1.65 5 3.3 5 5 C3.35 5 1.7 5 0 5 C0 3.35 0 1.7 0 0 Z " fill="#88A1BF" transform="translate(295,130)"/>
<path d="M0 0 C1.65 0 3.3 0 5 0 C5 1.65 5 3.3 5 5 C3.35 5 1.7 5 0 5 C0 3.35 0 1.7 0 0 Z " fill="#C7D7EA" transform="translate(290,130)"/>
<path d="M0 0 C1.65 0 3.3 0 5 0 C5 1.65 5 3.3 5 5 C3.35 5 1.7 5 0 5 C0 3.35 0 1.7 0 0 Z " fill="#E2E6EC" transform="translate(280,130)"/>
<path d="M0 0 C1.65 0 3.3 0 5 0 C5 1.65 5 3.3 5 5 C3.35 5 1.7 5 0 5 C0 3.35 0 1.7 0 0 Z " fill="#D7E1E9" transform="translate(230,130)"/>
<path d="M0 0 C1.65 0 3.3 0 5 0 C5 1.65 5 3.3 5 5 C3.35 5 1.7 5 0 5 C0 3.35 0 1.7 0 0 Z " fill="#BCD4ED" transform="translate(220,130)"/>
</svg>
